<?xml version="1.0" encoding="UTF-8" standalone="no"?>
<!DOCTYPE svg PUBLIC "-//W3C//DTD SVG 1.1//EN"
 "http://www.w3.org/Graphics/SVG/1.1/DTD/svg11.dtd">
<!-- Generated by graphviz version 2.43.0 (0)
 -->
<!-- Title: system_topology Pages: 1 -->
<svg width="1140pt" height="740pt"
 viewBox="0.00 0.00 1140.00 740.00" xmlns="http://www.w3.org/2000/svg" xmlns:xlink="http://www.w3.org/1999/xlink">
<g id="graph0" class="graph" transform="scale(1 1) rotate(0) translate(36 704)">
<title>system_topology</title>
<polygon fill="#1a1a2e" stroke="transparent" points="-36,36 -36,-704 1104,-704 1104,36 -36,36"/>
<text text-anchor="middle" x="534" y="-651.2" font-family="Helvetica,sans-Serif" font-size="16.00" fill="white">worlock — Dual&#45;GPU System Topology</text>
<text text-anchor="middle" x="534" y="-633.2" font-family="Helvetica,sans-Serif" font-size="16.00" fill="white">(RTX 5080 + RTX 3080, ReBAR flash target)</text>
<g id="clust1" class="cluster">
<title>cluster_cpu</title>
<polygon fill="#16213e" stroke="#334466" points="100,-399 100,-616 236,-616 236,-399 100,-399"/>
<text text-anchor="middle" x="168" y="-599.2" font-family="Helvetica,sans-Serif" font-size="16.00" fill="white">Host System</text>
</g>
<g id="clust2" class="cluster">
<title>cluster_mb</title>
<polygon fill="#1a2e0f" stroke="#445522" points="244,-312 244,-509 618,-509 618,-312 244,-312"/>
<text text-anchor="middle" x="431" y="-492.2" font-family="Helvetica,sans-Serif" font-size="16.00" fill="white">ASRock X570 Taichi</text>
<text text-anchor="middle" x="431" y="-474.2" font-family="Helvetica,sans-Serif" font-size="16.00" fill="white">(PCIe Gen 4, Above&#45;4G Decoding ON, CSM OFF)</text>
</g>
<g id="clust3" class="cluster">
<title>cluster_gpu0</title>
<polygon fill="#002211" stroke="#006644" points="418,-8 418,-287 746,-287 746,-8 418,-8"/>
<text text-anchor="middle" x="582" y="-270.2" font-family="Helvetica,sans-Serif" font-size="16.00" fill="#00ff88">GPU 0 — RTX 5080 &#160;[ReBAR ENABLED ✓]</text>
</g>
<g id="clust4" class="cluster">
<title>cluster_gpu1</title>
<polygon fill="#221100" stroke="#664400" points="8,-8 8,-293 410,-293 410,-8 8,-8"/>
<text text-anchor="middle" x="209" y="-276.2" font-family="Helvetica,sans-Serif" font-size="16.00" fill="#ffaa00">GPU 1 — RTX 3080 &#160;[ReBAR DISABLED → TARGET]</text>
</g>
<g id="clust5" class="cluster">
<title>cluster_os</title>
<polygon fill="#111133" stroke="#333366" points="754,-201 754,-477 1060,-477 1060,-201 754,-201"/>
<text text-anchor="middle" x="907" y="-460.2" font-family="Helvetica,sans-Serif" font-size="16.00" fill="white">OS Layer</text>
</g>
<!-- cpu -->
<g id="node1" class="node">
<title>cpu</title>
<polygon fill="#2e4a7a" stroke="black" points="227.5,-582 108.5,-582 108.5,-546 227.5,-546 227.5,-582"/>
<text text-anchor="middle" x="168" y="-567.2" font-family="Helvetica,sans-Serif" font-size="11.00" fill="white">AMD Ryzen 9 5950X</text>
<text text-anchor="middle" x="168" y="-555.2" font-family="Helvetica,sans-Serif" font-size="11.00" fill="white">32 threads</text>
</g>
<!-- ram -->
<g id="node2" class="node">
<title>ram</title>
<polygon fill="#2e4a7a" stroke="black" points="211.5,-443 124.5,-443 124.5,-407 211.5,-407 211.5,-443"/>
<text text-anchor="middle" x="168" y="-422.2" font-family="Helvetica,sans-Serif" font-size="11.00" fill="white">128 GB DDR4</text>
</g>
<!-- cpu&#45;&gt;ram -->
<!-- pcie_root -->
<g id="node3" class="node">
<title>pcie_root</title>
<polygon fill="#3a5a1a" stroke="black" points="365,-457 252,-425 365,-393 478,-425 365,-457"/>
<text text-anchor="middle" x="365" y="-428.2" font-family="Helvetica,sans-Serif" font-size="11.00" fill="white">PCIe Root Complex</text>
<text text-anchor="middle" x="365" y="-416.2" font-family="Helvetica,sans-Serif" font-size="11.00" fill="white">(AMD X570)</text>
</g>
<!-- cpu&#45;&gt;pcie_root -->
<g id="edge8" class="edge">
<title>cpu&#45;&gt;pcie_root</title>
<path fill="none" stroke="#aaaaaa" d="M219.5,-545.94C219.5,-513.79 219.5,-450 219.5,-450 219.5,-450 329.99,-450 329.99,-450"/>
<polygon fill="#aaaaaa" stroke="#aaaaaa" points="329.99,-453.5 339.99,-450 329.99,-446.5 329.99,-453.5"/>
<text text-anchor="middle" x="304" y="-520" font-family="Helvetica,sans-Serif" font-size="10.00">PCIe Gen 4</text>
</g>
<!-- slot_0e -->
<g id="node4" class="node">
<title>slot_0e</title>
<polygon fill="#2a3a10" stroke="transparent" points="566,-356 430,-356 430,-320 566,-320 566,-356"/>
<text text-anchor="middle" x="498" y="-335.2" font-family="Helvetica,sans-Serif" font-size="11.00" fill="#cccccc">PCIe x16 — slot 0E:00.0</text>
</g>
<!-- pcie_root&#45;&gt;slot_0e -->
<g id="edge9" class="edge">
<title>pcie_root&#45;&gt;slot_0e</title>
<path fill="none" stroke="#aaaaaa" d="M454,-418.17C454,-418.17 454,-366.18 454,-366.18"/>
<polygon fill="#aaaaaa" stroke="#aaaaaa" points="457.5,-366.18 454,-356.18 450.5,-366.18 457.5,-366.18"/>
</g>
<!-- slot_0f -->
<g id="node5" class="node">
<title>slot_0f</title>
<polygon fill="#2a3a10" stroke="transparent" points="406.5,-356 271.5,-356 271.5,-320 406.5,-320 406.5,-356"/>
<text text-anchor="middle" x="339" y="-335.2" font-family="Helvetica,sans-Serif" font-size="11.00" fill="#cccccc">PCIe x16 — slot 0F:00.0</text>
</g>
<!-- pcie_root&#45;&gt;slot_0f -->
<g id="edge10" class="edge">
<title>pcie_root&#45;&gt;slot_0f</title>
<path fill="none" stroke="#aaaaaa" d="M339,-400.3C339,-400.3 339,-366.12 339,-366.12"/>
<polygon fill="#aaaaaa" stroke="#aaaaaa" points="342.5,-366.12 339,-356.12 335.5,-366.12 342.5,-366.12"/>
</g>
<!-- rtx5080 -->
<g id="node6" class="node">
<title>rtx5080</title>
<polygon fill="#004422" stroke="black" points="557.5,-253 456.5,-253 452.5,-249 452.5,-209 553.5,-209 557.5,-213 557.5,-253"/>
<polyline fill="none" stroke="black" points="553.5,-249 452.5,-249 "/>
<polyline fill="none" stroke="black" points="553.5,-249 553.5,-209 "/>
<polyline fill="none" stroke="black" points="553.5,-249 557.5,-253 "/>
<text text-anchor="middle" x="505" y="-240.2" font-family="Helvetica,sans-Serif" font-size="11.00" fill="#00ff88">NVIDIA RTX 5080</text>
<text text-anchor="middle" x="505" y="-228.2" font-family="Helvetica,sans-Serif" font-size="11.00" fill="#00ff88">10DE:2C02</text>
<text text-anchor="middle" x="505" y="-216.2" font-family="Helvetica,sans-Serif" font-size="11.00" fill="#00ff88">16 GB GDDR7</text>
</g>
<!-- slot_0e&#45;&gt;rtx5080 -->
<g id="edge11" class="edge">
<title>slot_0e&#45;&gt;rtx5080</title>
<path fill="none" stroke="#00aa66" d="M505,-319.85C505,-319.85 505,-263.33 505,-263.33"/>
<polygon fill="#00aa66" stroke="#00aa66" points="508.5,-263.33 505,-253.33 501.5,-263.33 508.5,-263.33"/>
</g>
<!-- rtx3080 -->
<g id="node9" class="node">
<title>rtx3080</title>
<polygon fill="#442200" stroke="black" points="402,-259 238,-259 234,-255 234,-203 398,-203 402,-207 402,-259"/>
<polyline fill="none" stroke="black" points="398,-255 234,-255 "/>
<polyline fill="none" stroke="black" points="398,-255 398,-203 "/>
<polyline fill="none" stroke="black" points="398,-255 402,-259 "/>
<text text-anchor="middle" x="318" y="-246.2" font-family="Helvetica,sans-Serif" font-size="11.00" fill="#ffaa00">NVIDIA RTX 3080</text>
<text text-anchor="middle" x="318" y="-234.2" font-family="Helvetica,sans-Serif" font-size="11.00" fill="#ffaa00">10DE:2206 / 1043:87B0</text>
<text text-anchor="middle" x="318" y="-222.2" font-family="Helvetica,sans-Serif" font-size="11.00" fill="#ffaa00">TUF&#45;RTX3080&#45;O10G&#45;GAMING</text>
<text text-anchor="middle" x="318" y="-210.2" font-family="Helvetica,sans-Serif" font-size="11.00" fill="#ffaa00">10 GB GDDR6X</text>
</g>
<!-- slot_0f&#45;&gt;rtx3080 -->
<g id="edge12" class="edge">
<title>slot_0f&#45;&gt;rtx3080</title>
<path fill="none" stroke="#ffaa00" d="M315,-319.85C315,-319.85 315,-269.33 315,-269.33"/>
<polygon fill="#ffaa00" stroke="#ffaa00" points="318.5,-269.33 315,-259.33 311.5,-269.33 318.5,-269.33"/>
</g>
<!-- bar1_5080 -->
<g id="node7" class="node">
<title>bar1_5080</title>
<polygon fill="#005533" stroke="black" points="561.5,-139 448.5,-139 448.5,-95 561.5,-95 561.5,-139"/>
<text text-anchor="middle" x="505" y="-126.2" font-family="Helvetica,sans-Serif" font-size="11.00" fill="#88ffcc">BAR1 Window</text>
<text text-anchor="middle" x="505" y="-114.2" font-family="Helvetica,sans-Serif" font-size="11.00" fill="#88ffcc">16384 MiB (16 GB)</text>
<text text-anchor="middle" x="505" y="-102.2" font-family="Helvetica,sans-Serif" font-size="11.00" fill="#88ffcc">Full VRAM exposed</text>
</g>
<!-- rtx5080&#45;&gt;bar1_5080 -->
<g id="edge2" class="edge">
<title>rtx5080&#45;&gt;bar1_5080</title>
<path fill="none" stroke="#00aa66" d="M505,-208.75C505,-208.75 505,-149.19 505,-149.19"/>
<polygon fill="#00aa66" stroke="#00aa66" points="508.5,-149.19 505,-139.19 501.5,-149.19 508.5,-149.19"/>
<text text-anchor="middle" x="531" y="-171.5" font-family="Helvetica,sans-Serif" font-size="10.00">PCIe BAR1</text>
</g>
<!-- vram5080 -->
<g id="node8" class="node">
<title>vram5080</title>
<polygon fill="#003322" stroke="black" points="532,-52 478,-52 478,-16 532,-16 532,-52"/>
<text text-anchor="middle" x="505" y="-37.2" font-family="Helvetica,sans-Serif" font-size="11.00" fill="#aaffcc">VRAM</text>
<text text-anchor="middle" x="505" y="-25.2" font-family="Helvetica,sans-Serif" font-size="11.00" fill="#aaffcc">16 GB</text>
</g>
<!-- bar1_5080&#45;&gt;vram5080 -->
<g id="edge3" class="edge">
<title>bar1_5080&#45;&gt;vram5080</title>
<path fill="none" stroke="#009955" d="M505,-94.76C505,-94.76 505,-62.11 505,-62.11"/>
<polygon fill="#009955" stroke="#009955" points="508.5,-62.11 505,-52.11 501.5,-62.11 508.5,-62.11"/>
</g>
<!-- bar1_3080_old -->
<g id="node10" class="node">
<title>bar1_3080_old</title>
<polygon fill="#553300" stroke="black" points="232,-145 106,-145 106,-89 232,-89 232,-145"/>
<text text-anchor="middle" x="169" y="-132.2" font-family="Helvetica,sans-Serif" font-size="11.00" fill="#ffcc66">BAR1 Window</text>
<text text-anchor="middle" x="169" y="-120.2" font-family="Helvetica,sans-Serif" font-size="11.00" fill="#ffcc66">256 MiB (BEFORE)</text>
<text text-anchor="middle" x="169" y="-108.2" font-family="Helvetica,sans-Serif" font-size="11.00" fill="#ffcc66">⚠ Only 2.5% of VRAM</text>
<text text-anchor="middle" x="169" y="-96.2" font-family="Helvetica,sans-Serif" font-size="11.00" fill="#ffcc66">exposed to CPU</text>
</g>
<!-- rtx3080&#45;&gt;bar1_3080_old -->
<g id="edge4" class="edge">
<title>rtx3080&#45;&gt;bar1_3080_old</title>
<path fill="none" stroke="#ff6600" stroke-dasharray="5,2" d="M242.25,-202.82C242.25,-169.06 242.25,-117 242.25,-117 242.25,-117 241.23,-117 241.23,-117"/>
<polygon fill="#ff6600" stroke="#ff6600" points="242.06,-113.5 232.06,-117 242.06,-120.5 242.06,-113.5"/>
<text text-anchor="middle" x="234.5" y="-171.5" font-family="Helvetica,sans-Serif" font-size="10.00">Before flash</text>
</g>
<!-- bar1_3080_new -->
<g id="node11" class="node">
<title>bar1_3080_new</title>
<polygon fill="#334400" stroke="black" stroke-dasharray="5,2" points="399.5,-145 250.5,-145 250.5,-89 399.5,-89 399.5,-145"/>
<text text-anchor="middle" x="325" y="-132.2" font-family="Helvetica,sans-Serif" font-size="11.00" fill="#aaff66">BAR1 Window</text>
<text text-anchor="middle" x="325" y="-120.2" font-family="Helvetica,sans-Serif" font-size="11.00" fill="#aaff66">8192 MiB (AFTER FLASH)</text>
<text text-anchor="middle" x="325" y="-108.2" font-family="Helvetica,sans-Serif" font-size="11.00" fill="#aaff66">✓ Full VRAM window</text>
<text text-anchor="middle" x="325" y="-96.2" font-family="Helvetica,sans-Serif" font-size="11.00" fill="#aaff66">(post&#45;reboot)</text>
</g>
<!-- rtx3080&#45;&gt;bar1_3080_new -->
<g id="edge5" class="edge">
<title>rtx3080&#45;&gt;bar1_3080_new</title>
<path fill="none" stroke="#88cc00" d="M325,-202.82C325,-202.82 325,-155.25 325,-155.25"/>
<polygon fill="#88cc00" stroke="#88cc00" points="328.5,-155.25 325,-145.25 321.5,-155.25 328.5,-155.25"/>
<text text-anchor="middle" x="346" y="-177" font-family="Helvetica,sans-Serif" font-size="10.00">After flash</text>
<text text-anchor="middle" x="346" y="-166" font-family="Helvetica,sans-Serif" font-size="10.00">+ reboot</text>
</g>
<!-- vram3080 -->
<g id="node12" class="node">
<title>vram3080</title>
<polygon fill="#331100" stroke="black" points="274,-52 220,-52 220,-16 274,-16 274,-52"/>
<text text-anchor="middle" x="247" y="-37.2" font-family="Helvetica,sans-Serif" font-size="11.00" fill="#ffbbaa">VRAM</text>
<text text-anchor="middle" x="247" y="-25.2" font-family="Helvetica,sans-Serif" font-size="11.00" fill="#ffbbaa">10 GB</text>
</g>
<!-- bar1_3080_old&#45;&gt;vram3080 -->
<g id="edge6" class="edge">
<title>bar1_3080_old&#45;&gt;vram3080</title>
<path fill="none" stroke="#cc4400" stroke-dasharray="5,2" d="M226,-88.9C226,-88.9 226,-62.42 226,-62.42"/>
<polygon fill="#cc4400" stroke="#cc4400" points="229.5,-62.42 226,-52.42 222.5,-62.42 229.5,-62.42"/>
</g>
<!-- bar1_3080_new&#45;&gt;vram3080 -->
<g id="edge7" class="edge">
<title>bar1_3080_new&#45;&gt;vram3080</title>
<path fill="none" stroke="#88cc00" d="M262.25,-88.9C262.25,-88.9 262.25,-62.42 262.25,-62.42"/>
<polygon fill="#88cc00" stroke="#88cc00" points="265.75,-62.42 262.25,-52.42 258.75,-62.42 265.75,-62.42"/>
</g>
<!-- kernel -->
<g id="node13" class="node">
<title>kernel</title>
<polygon fill="#222244" stroke="black" points="896.5,-443 777.5,-443 777.5,-407 896.5,-407 896.5,-443"/>
<text text-anchor="middle" x="837" y="-428.2" font-family="Helvetica,sans-Serif" font-size="11.00" fill="white">Linux 6.8.12</text>
<text text-anchor="middle" x="837" y="-416.2" font-family="Helvetica,sans-Serif" font-size="11.00" fill="white">Xubuntu 22.04.5 LTS</text>
</g>
<!-- driver -->
<g id="node14" class="node">
<title>driver</title>
<polygon fill="#222244" stroke="black" points="901,-356 773,-356 773,-320 901,-320 901,-356"/>
<text text-anchor="middle" x="837" y="-341.2" font-family="Helvetica,sans-Serif" font-size="11.00" fill="white">NVIDIA Driver 580.142</text>
<text text-anchor="middle" x="837" y="-329.2" font-family="Helvetica,sans-Serif" font-size="11.00" fill="white">CUDA 13.0</text>
</g>
<!-- kernel&#45;&gt;driver -->
<g id="edge13" class="edge">
<title>kernel&#45;&gt;driver</title>
<path fill="none" stroke="#aaaaaa" d="M837,-406.97C837,-406.97 837,-366 837,-366"/>
<polygon fill="#aaaaaa" stroke="#aaaaaa" points="840.5,-366 837,-356 833.5,-366 840.5,-366"/>
</g>
<!-- driver&#45;&gt;rtx5080 -->
<g id="edge16" class="edge">
<title>driver&#45;&gt;rtx5080</title>
<path fill="none" stroke="#aaaaaa" stroke-dasharray="1,5" d="M772.58,-338C723.39,-338 664,-338 664,-338 664,-338 664,-231 664,-231 664,-231 567.5,-231 567.5,-231"/>
<polygon fill="#aaaaaa" stroke="#aaaaaa" points="567.5,-227.5 557.5,-231 567.5,-234.5 567.5,-227.5"/>
</g>
<!-- driver&#45;&gt;rtx3080 -->
<g id="edge17" class="edge">
<title>driver&#45;&gt;rtx3080</title>
<path fill="none" stroke="#aaaaaa" stroke-dasharray="1,5" d="M815.67,-319.75C815.67,-305.82 815.67,-289 815.67,-289 815.67,-289 358.5,-289 358.5,-289 358.5,-289 358.5,-269.32 358.5,-269.32"/>
<polygon fill="#aaaaaa" stroke="#aaaaaa" points="362,-269.32 358.5,-259.32 355,-269.32 362,-269.32"/>
</g>
<!-- ollama -->
<g id="node15" class="node">
<title>ollama</title>
<polygon fill="#333355" stroke="black" points="936,-253 762,-253 762,-209 936,-209 936,-253"/>
<text text-anchor="middle" x="849" y="-240.2" font-family="Helvetica,sans-Serif" font-size="11.00" fill="#aaaaff">Ollama Inference</text>
<text text-anchor="middle" x="849" y="-228.2" font-family="Helvetica,sans-Serif" font-size="11.00" fill="#aaaaff">CUDA_VISIBLE_DEVICES=0,1</text>
<text text-anchor="middle" x="849" y="-216.2" font-family="Helvetica,sans-Serif" font-size="11.00" fill="#aaaaff">Both GPUs</text>
</g>
<!-- driver&#45;&gt;ollama -->
<g id="edge14" class="edge">
<title>driver&#45;&gt;ollama</title>
<path fill="none" stroke="#aaaaaa" d="M858.33,-319.85C858.33,-319.85 858.33,-263.33 858.33,-263.33"/>
<polygon fill="#aaaaaa" stroke="#aaaaaa" points="861.83,-263.33 858.33,-253.33 854.83,-263.33 861.83,-263.33"/>
</g>
<!-- lightdm -->
<g id="node16" class="node">
<title>lightdm</title>
<polygon fill="#222244" stroke="black" points="1052,-249 954,-249 954,-213 1052,-213 1052,-249"/>
<text text-anchor="middle" x="1003" y="-234.2" font-family="Helvetica,sans-Serif" font-size="11.00" fill="white">LightDM</text>
<text text-anchor="middle" x="1003" y="-222.2" font-family="Helvetica,sans-Serif" font-size="11.00" fill="white">Display Manager</text>
</g>
<!-- driver&#45;&gt;lightdm -->
<g id="edge15" class="edge">
<title>driver&#45;&gt;lightdm</title>
<path fill="none" stroke="#aaaaaa" d="M901.18,-338C947.89,-338 1003,-338 1003,-338 1003,-338 1003,-259.15 1003,-259.15"/>
<polygon fill="#aaaaaa" stroke="#aaaaaa" points="1006.5,-259.15 1003,-249.15 999.5,-259.15 1006.5,-259.15"/>
</g>
</g>
</svg>
