<?xml version="1.0" encoding="UTF-8" standalone="no"?>
<!DOCTYPE svg PUBLIC "-//W3C//DTD SVG 1.1//EN"
 "http://www.w3.org/Graphics/SVG/1.1/DTD/svg11.dtd">
<!-- Generated by graphviz version 2.43.0 (0)
 -->
<!-- Title: rebar_architecture Pages: 1 -->
<svg width="1695pt" height="650pt"
 viewBox="0.00 0.00 1694.69 650.40" xmlns="http://www.w3.org/2000/svg" xmlns:xlink="http://www.w3.org/1999/xlink">
<g id="graph0" class="graph" transform="scale(1 1) rotate(0) translate(43.2 607.2)">
<title>rebar_architecture</title>
<polygon fill="#0d1117" stroke="transparent" points="-43.2,43.2 -43.2,-607.2 1651.49,-607.2 1651.49,43.2 -43.2,43.2"/>
<text text-anchor="middle" x="804.15" y="-547.2" font-family="Helvetica,sans-Serif" font-size="16.00" fill="white">Resizable BAR (ReBAR) Architecture</text>
<text text-anchor="middle" x="804.15" y="-529.2" font-family="Helvetica,sans-Serif" font-size="16.00" fill="white">How BAR1 expansion enables full VRAM access</text>
<g id="clust1" class="cluster">
<title>cluster_cpu_side</title>
<polygon fill="#0d1b2a" stroke="#334455" points="8,-281 8,-403 485.29,-403 485.29,-281 8,-281"/>
<text text-anchor="middle" x="246.65" y="-386.2" font-family="Helvetica,sans-Serif" font-size="16.00" fill="white">CPU Address Space</text>
</g>
<g id="clust2" class="cluster">
<title>cluster_pcie</title>
<polygon fill="#1a2e0f" stroke="#445533" points="634.29,-230 634.29,-512 1239.29,-512 1239.29,-230 634.29,-230"/>
<text text-anchor="middle" x="936.79" y="-495.2" font-family="Helvetica,sans-Serif" font-size="16.00" fill="white">PCIe Gen 4 x16 Fabric</text>
</g>
<g id="clust3" class="cluster">
<title>cluster_before</title>
<polygon fill="#221100" stroke="#663300" points="1041.29,-362 1041.29,-478 1231.29,-478 1231.29,-362 1041.29,-362"/>
<text text-anchor="middle" x="1136.29" y="-461.2" font-family="Helvetica,sans-Serif" font-size="16.00" fill="#ff6600">BEFORE ReBAR</text>
<text text-anchor="middle" x="1136.29" y="-443.2" font-family="Helvetica,sans-Serif" font-size="16.00" fill="#ff6600">(Legacy fixed&#45;size BAR)</text>
</g>
<g id="clust4" class="cluster">
<title>cluster_after</title>
<polygon fill="#112200" stroke="#336622" points="1045.79,-238 1045.79,-354 1227.79,-354 1227.79,-238 1045.79,-238"/>
<text text-anchor="middle" x="1136.79" y="-337.2" font-family="Helvetica,sans-Serif" font-size="16.00" fill="#00cc66">AFTER ReBAR</text>
<text text-anchor="middle" x="1136.79" y="-319.2" font-family="Helvetica,sans-Serif" font-size="16.00" fill="#00cc66">(Resizable BAR active)</text>
</g>
<g id="clust5" class="cluster">
<title>cluster_gpu_side</title>
<polygon fill="#1a0e00" stroke="#664400" points="1067.79,-8 1067.79,-215 1549.29,-215 1549.29,-8 1067.79,-8"/>
<text text-anchor="middle" x="1308.54" y="-198.2" font-family="Helvetica,sans-Serif" font-size="16.00" fill="#ffaa00">RTX 3080 (10 GB GDDR6X)</text>
</g>
<g id="clust6" class="cluster">
<title>cluster_vram_access</title>
</g>
<!-- cpu_core -->
<g id="node1" class="node">
<title>cpu_core</title>
<ellipse fill="#1a3a5a" stroke="black" cx="100.15" cy="-346" rx="84.29" ry="22.76"/>
<text text-anchor="middle" x="100.15" y="-349.2" font-family="Helvetica,sans-Serif" font-size="11.00" fill="white">CPU Core(s)</text>
<text text-anchor="middle" x="100.15" y="-337.2" font-family="Helvetica,sans-Serif" font-size="11.00" fill="white">AMD Ryzen 9 5950X</text>
</g>
<!-- mmio -->
<g id="node2" class="node">
<title>mmio</title>
<polygon fill="#1a3a5a" stroke="black" points="477.29,-369 340.29,-369 340.29,-325 477.29,-325 477.29,-369"/>
<text text-anchor="middle" x="408.79" y="-356.2" font-family="Helvetica,sans-Serif" font-size="11.00" fill="white">MMIO Window</text>
<text text-anchor="middle" x="408.79" y="-344.2" font-family="Helvetica,sans-Serif" font-size="11.00" fill="white">(BAR1 mapped</text>
<text text-anchor="middle" x="408.79" y="-332.2" font-family="Helvetica,sans-Serif" font-size="11.00" fill="white">into CPU address space)</text>
</g>
<!-- cpu_core&#45;&gt;mmio -->
<g id="edge1" class="edge">
<title>cpu_core&#45;&gt;mmio</title>
<path fill="none" stroke="#66aaff" d="M180.11,-353.07C212.87,-354.48 250.37,-353.52 329.81,-350.3"/>
<polygon fill="#66aaff" stroke="#66aaff" points="330.38,-353.78 340.23,-349.87 330.1,-346.78 330.38,-353.78"/>
<text text-anchor="middle" x="262.29" y="-361" font-family="Helvetica,sans-Serif" font-size="10.00">DMA / direct</text>
<text text-anchor="middle" x="262.29" y="-350" font-family="Helvetica,sans-Serif" font-size="10.00">memory access</text>
</g>
<!-- pcie_bus -->
<g id="node3" class="node">
<title>pcie_bus</title>
<polygon fill="#2a4a1a" stroke="black" points="776.29,-391 642.29,-347 776.29,-303 910.29,-347 776.29,-391"/>
<text text-anchor="middle" x="776.29" y="-356.2" font-family="Helvetica,sans-Serif" font-size="11.00" fill="white">PCIe Bus</text>
<text text-anchor="middle" x="776.29" y="-344.2" font-family="Helvetica,sans-Serif" font-size="11.00" fill="white">16 GT/s per lane</text>
<text text-anchor="middle" x="776.29" y="-332.2" font-family="Helvetica,sans-Serif" font-size="11.00" fill="white">x16 = 32 GB/s each way</text>
</g>
<!-- mmio&#45;&gt;pcie_bus -->
<g id="edge4" class="edge">
<title>mmio&#45;&gt;pcie_bus</title>
<path fill="none" stroke="#66aaff" d="M477.76,-362.39C525.17,-370.8 563.47,-369.69 665.69,-359.06"/>
<polygon fill="#66aaff" stroke="#66aaff" points="666.21,-362.53 675.79,-358.01 665.48,-355.57 666.21,-362.53"/>
<text text-anchor="middle" x="559.79" y="-361" font-family="Helvetica,sans-Serif" font-size="10.00"> &#160;Address mapped</text>
<text text-anchor="middle" x="559.79" y="-350" font-family="Helvetica,sans-Serif" font-size="10.00"> &#160;through PCIe</text>
</g>
<!-- bar_old -->
<g id="node4" class="node">
<title>bar_old</title>
<polygon fill="#442200" stroke="black" points="1217.29,-426 1055.29,-426 1055.29,-370 1217.29,-370 1217.29,-426"/>
<text text-anchor="middle" x="1136.29" y="-413.2" font-family="Helvetica,sans-Serif" font-size="11.00" fill="#ffaa66">BAR1 = 256 MiB</text>
<text text-anchor="middle" x="1136.29" y="-401.2" font-family="Helvetica,sans-Serif" font-size="11.00" fill="#ffaa66">(BIOS&#45;assigned fixed window)</text>
<text text-anchor="middle" x="1136.29" y="-389.2" font-family="Helvetica,sans-Serif" font-size="11.00" fill="#ffaa66">Only 2.5% of 10 GB VRAM</text>
<text text-anchor="middle" x="1136.29" y="-377.2" font-family="Helvetica,sans-Serif" font-size="11.00" fill="#ffaa66">visible to CPU at a time</text>
</g>
<!-- pcie_bus&#45;&gt;bar_old -->
<g id="edge5" class="edge">
<title>pcie_bus&#45;&gt;bar_old</title>
<path fill="none" stroke="#ff6600" stroke-dasharray="5,2" d="M847.84,-367.55C955.42,-398.18 999.22,-408.53 1044.94,-407.91"/>
<polygon fill="#ff6600" stroke="#ff6600" points="1045.17,-411.4 1055.06,-407.6 1044.96,-404.41 1045.17,-411.4"/>
<text text-anchor="middle" x="974.29" y="-421" font-family="Helvetica,sans-Serif" font-size="10.00">BAR1</text>
<text text-anchor="middle" x="974.29" y="-410" font-family="Helvetica,sans-Serif" font-size="10.00">256 MiB</text>
<text text-anchor="middle" x="974.29" y="-399" font-family="Helvetica,sans-Serif" font-size="10.00">(before)</text>
</g>
<!-- bar_new -->
<g id="node5" class="node">
<title>bar_new</title>
<polygon fill="#224400" stroke="black" points="1208.79,-302 1063.79,-302 1063.79,-246 1208.79,-246 1208.79,-302"/>
<text text-anchor="middle" x="1136.29" y="-289.2" font-family="Helvetica,sans-Serif" font-size="11.00" fill="#88ff88">BAR1 = 8192 MiB</text>
<text text-anchor="middle" x="1136.29" y="-277.2" font-family="Helvetica,sans-Serif" font-size="11.00" fill="#88ff88">(UEFI assigns full window)</text>
<text text-anchor="middle" x="1136.29" y="-265.2" font-family="Helvetica,sans-Serif" font-size="11.00" fill="#88ff88">80%+ of 10 GB VRAM</text>
<text text-anchor="middle" x="1136.29" y="-253.2" font-family="Helvetica,sans-Serif" font-size="11.00" fill="#88ff88">directly CPU&#45;addressable</text>
</g>
<!-- pcie_bus&#45;&gt;bar_new -->
<g id="edge6" class="edge">
<title>pcie_bus&#45;&gt;bar_new</title>
<path fill="none" stroke="#88cc00" d="M890.81,-340.54C990.99,-334.12 1027.52,-327.68 1073.87,-306.33"/>
<polygon fill="#88cc00" stroke="#88cc00" points="1075.43,-309.46 1082.97,-302.01 1072.43,-303.13 1075.43,-309.46"/>
<text text-anchor="middle" x="974.29" y="-324" font-family="Helvetica,sans-Serif" font-size="10.00">BAR1</text>
<text text-anchor="middle" x="974.29" y="-313" font-family="Helvetica,sans-Serif" font-size="10.00">8192 MiB</text>
<text text-anchor="middle" x="974.29" y="-302" font-family="Helvetica,sans-Serif" font-size="10.00">(after)</text>
</g>
<!-- vram_visible_old -->
<g id="node7" class="node">
<title>vram_visible_old</title>
<polygon fill="#553300" stroke="black" stroke-dasharray="5,2" points="1528.29,-173 1426.29,-173 1426.29,-129 1528.29,-129 1528.29,-173"/>
<text text-anchor="middle" x="1477.29" y="-160.2" font-family="Helvetica,sans-Serif" font-size="11.00" fill="#ff8844">Visible to CPU</text>
<text text-anchor="middle" x="1477.29" y="-148.2" font-family="Helvetica,sans-Serif" font-size="11.00" fill="#ff8844">256 MiB</text>
<text text-anchor="middle" x="1477.29" y="-136.2" font-family="Helvetica,sans-Serif" font-size="11.00" fill="#ff8844">(was here before)</text>
</g>
<!-- bar_old&#45;&gt;vram_visible_old -->
<g id="edge7" class="edge">
<title>bar_old&#45;&gt;vram_visible_old</title>
<path fill="none" stroke="#ff6600" stroke-dasharray="5,2" d="M1195.27,-369.91C1372.62,-285.1 1395.17,-269.01 1456.17,-181.63"/>
<polygon fill="#ff6600" stroke="#ff6600" points="1459.18,-183.45 1462.01,-173.24 1453.43,-179.45 1459.18,-183.45"/>
</g>
<!-- reqs -->
<g id="node10" class="node">
<title>reqs</title>
<polygon fill="#111122" stroke="black" points="1575.29,-471 1373.29,-471 1373.29,-379 1581.29,-379 1581.29,-465 1575.29,-471"/>
<polyline fill="none" stroke="black" points="1575.29,-471 1575.29,-465 "/>
<polyline fill="none" stroke="black" points="1581.29,-465 1575.29,-465 "/>
<text text-anchor="middle" x="1477.29" y="-458.2" font-family="Helvetica,sans-Serif" font-size="11.00" fill="#aaaacc">Prerequisites for ReBAR:</text>
<text text-anchor="middle" x="1477.29" y="-446.2" font-family="Helvetica,sans-Serif" font-size="11.00" fill="#aaaacc">1. UEFI boot (no CSM)</text>
<text text-anchor="middle" x="1477.29" y="-434.2" font-family="Helvetica,sans-Serif" font-size="11.00" fill="#aaaacc">2. Above 4G Decoding ON (BIOS)</text>
<text text-anchor="middle" x="1477.29" y="-422.2" font-family="Helvetica,sans-Serif" font-size="11.00" fill="#aaaacc">3. Re&#45;Size BAR Support ON (BIOS)</text>
<text text-anchor="middle" x="1477.29" y="-410.2" font-family="Helvetica,sans-Serif" font-size="11.00" fill="#aaaacc">4. VBIOS with ReBAR capability bit set</text>
<text text-anchor="middle" x="1477.29" y="-398.2" font-family="Helvetica,sans-Serif" font-size="11.00" fill="#aaaacc"> &#160;&#160;→ This is what the flash accomplishes</text>
<text text-anchor="middle" x="1477.29" y="-386.2" font-family="Helvetica,sans-Serif" font-size="11.00" fill="#aaaacc">5. kernel param: pci=realloc</text>
</g>
<!-- bar_old&#45;&gt;reqs -->
<!-- vram_visible_new -->
<g id="node8" class="node">
<title>vram_visible_new</title>
<polygon fill="#335500" stroke="black" points="1533.29,-71 1421.29,-71 1421.29,-27 1533.29,-27 1533.29,-71"/>
<text text-anchor="middle" x="1477.29" y="-58.2" font-family="Helvetica,sans-Serif" font-size="11.00" fill="#88ff44">Visible to CPU</text>
<text text-anchor="middle" x="1477.29" y="-46.2" font-family="Helvetica,sans-Serif" font-size="11.00" fill="#88ff44">8192 MiB</text>
<text text-anchor="middle" x="1477.29" y="-34.2" font-family="Helvetica,sans-Serif" font-size="11.00" fill="#88ff44">(after ReBAR flash)</text>
</g>
<!-- bar_new&#45;&gt;vram_visible_new -->
<g id="edge8" class="edge">
<title>bar_new&#45;&gt;vram_visible_new</title>
<path fill="none" stroke="#88cc00" d="M1191.24,-245.87C1363.27,-157.63 1389.59,-141.31 1449.45,-78.62"/>
<polygon fill="#88cc00" stroke="#88cc00" points="1452.19,-80.83 1456.54,-71.16 1447.11,-76.01 1452.19,-80.83"/>
</g>
<!-- impact -->
<g id="node9" class="node">
<title>impact</title>
<polygon fill="#111122" stroke="black" points="1602.29,-321 1346.29,-321 1346.29,-241 1608.29,-241 1608.29,-315 1602.29,-321"/>
<polyline fill="none" stroke="black" points="1602.29,-321 1602.29,-315 "/>
<polyline fill="none" stroke="black" points="1608.29,-315 1602.29,-315 "/>
<text text-anchor="middle" x="1477.29" y="-308.2" font-family="Helvetica,sans-Serif" font-size="11.00" fill="#aaaacc">Performance Impact:</text>
<text text-anchor="middle" x="1477.29" y="-296.2" font-family="Helvetica,sans-Serif" font-size="11.00" fill="#aaaacc">• Cross&#45;GPU tensor copies: fewer PCIe round&#45;trips</text>
<text text-anchor="middle" x="1477.29" y="-284.2" font-family="Helvetica,sans-Serif" font-size="11.00" fill="#aaaacc">• Ollama multi&#45;GPU: better VRAM locality</text>
<text text-anchor="middle" x="1477.29" y="-272.2" font-family="Helvetica,sans-Serif" font-size="11.00" fill="#aaaacc">• CUDA P2P access: enabled with full BAR</text>
<text text-anchor="middle" x="1477.29" y="-260.2" font-family="Helvetica,sans-Serif" font-size="11.00" fill="#aaaacc">• Before: driver pages VRAM in 256 MiB chunks</text>
<text text-anchor="middle" x="1477.29" y="-248.2" font-family="Helvetica,sans-Serif" font-size="11.00" fill="#aaaacc">• After: entire model layer fits in BAR window</text>
</g>
<!-- bar_new&#45;&gt;impact -->
<!-- vram_full -->
<g id="node6" class="node">
<title>vram_full</title>
<path fill="#442200" stroke="black" d="M1196.79,-136.96C1196.79,-140.02 1169.67,-142.5 1136.29,-142.5 1102.91,-142.5 1075.79,-140.02 1075.79,-136.96 1075.79,-136.96 1075.79,-87.04 1075.79,-87.04 1075.79,-83.98 1102.91,-81.5 1136.29,-81.5 1169.67,-81.5 1196.79,-83.98 1196.79,-87.04 1196.79,-87.04 1196.79,-136.96 1196.79,-136.96"/>
<path fill="none" stroke="black" d="M1196.79,-136.96C1196.79,-133.9 1169.67,-131.41 1136.29,-131.41 1102.91,-131.41 1075.79,-133.9 1075.79,-136.96"/>
<text text-anchor="middle" x="1136.29" y="-121.2" font-family="Helvetica,sans-Serif" font-size="11.00" fill="#ffcc88">Full VRAM</text>
<text text-anchor="middle" x="1136.29" y="-109.2" font-family="Helvetica,sans-Serif" font-size="11.00" fill="#ffcc88">10,240 MiB GDDR6X</text>
<text text-anchor="middle" x="1136.29" y="-97.2" font-family="Helvetica,sans-Serif" font-size="11.00" fill="#ffcc88">~760 GB/s bandwidth</text>
</g>
<!-- vram_full&#45;&gt;vram_visible_old -->
<g id="edge2" class="edge">
<title>vram_full&#45;&gt;vram_visible_old</title>
<path fill="none" stroke="#ff6600" stroke-dasharray="5,2" d="M1196.98,-112.67C1328.03,-114.26 1367.01,-116.37 1416.53,-130.74"/>
<polygon fill="#ff6600" stroke="#ff6600" points="1415.68,-134.13 1426.26,-133.67 1417.7,-127.43 1415.68,-134.13"/>
<text text-anchor="middle" x="1285.79" y="-173" font-family="Helvetica,sans-Serif" font-size="10.00">mapped</text>
<text text-anchor="middle" x="1285.79" y="-162" font-family="Helvetica,sans-Serif" font-size="10.00">(before)</text>
</g>
<!-- vram_full&#45;&gt;vram_visible_new -->
<g id="edge3" class="edge">
<title>vram_full&#45;&gt;vram_visible_new</title>
<path fill="none" stroke="#88cc00" d="M1196.96,-97.91C1323.08,-68.68 1363.47,-60.03 1411.25,-54.75"/>
<polygon fill="#88cc00" stroke="#88cc00" points="1411.68,-58.23 1421.26,-53.7 1410.95,-51.26 1411.68,-58.23"/>
<text text-anchor="middle" x="1285.79" y="-88" font-family="Helvetica,sans-Serif" font-size="10.00">mapped</text>
<text text-anchor="middle" x="1285.79" y="-77" font-family="Helvetica,sans-Serif" font-size="10.00">(after)</text>
</g>
</g>
</svg>
