<?xml version="1.0" encoding="UTF-8" standalone="no"?>
<!DOCTYPE svg PUBLIC "-//W3C//DTD SVG 1.1//EN"
 "http://www.w3.org/Graphics/SVG/1.1/DTD/svg11.dtd">
<!-- Generated by graphviz version 2.43.0 (0)
 -->
<!-- Title: flash_workflow Pages: 1 -->
<svg width="702pt" height="2293pt"
 viewBox="0.00 0.00 702.30 2292.65" xmlns="http://www.w3.org/2000/svg" xmlns:xlink="http://www.w3.org/1999/xlink">
<g id="graph0" class="graph" transform="scale(1 1) rotate(0) translate(43.2 2249.45)">
<title>flash_workflow</title>
<polygon fill="#0d1117" stroke="transparent" points="-43.2,43.2 -43.2,-2249.45 659.1,-2249.45 659.1,43.2 -43.2,43.2"/>
<text text-anchor="middle" x="307.95" y="-2189.45" font-family="Helvetica,sans-Serif" font-size="16.00" fill="white">rebar&#45;enable.sh — VBIOS Flash Workflow</text>
<text text-anchor="middle" x="307.95" y="-2171.45" font-family="Helvetica,sans-Serif" font-size="16.00" fill="white">RTX 3080 ReBAR Enable (AS02 ROM)</text>
<!-- start -->
<g id="node1" class="node">
<title>start</title>
<ellipse fill="#003366" stroke="black" cx="486.5" cy="-2139.63" rx="129.3" ry="22.76"/>
<text text-anchor="middle" x="486.5" y="-2142.83" font-family="Helvetica,sans-Serif" font-size="11.00" fill="white">START</text>
<text text-anchor="middle" x="486.5" y="-2130.83" font-family="Helvetica,sans-Serif" font-size="11.00" fill="white">sudo ~/vbios&#45;work/rebar&#45;enable.sh</text>
</g>
<!-- check_root -->
<g id="node2" class="node">
<title>check_root</title>
<polygon fill="#1a1a3a" stroke="black" points="486.5,-2072 375.19,-2054 486.5,-2036 597.81,-2054 486.5,-2072"/>
<text text-anchor="middle" x="486.5" y="-2051.2" font-family="Helvetica,sans-Serif" font-size="11.00" fill="white">Check: running as root?</text>
</g>
<!-- start&#45;&gt;check_root -->
<g id="edge1" class="edge">
<title>start&#45;&gt;check_root</title>
<path fill="none" stroke="#aaaaaa" d="M486.5,-2116.68C486.5,-2116.68 486.5,-2082.13 486.5,-2082.13"/>
<polygon fill="#aaaaaa" stroke="#aaaaaa" points="490,-2082.12 486.5,-2072.13 483,-2082.13 490,-2082.12"/>
</g>
<!-- check_nvflash -->
<g id="node3" class="node">
<title>check_nvflash</title>
<polygon fill="#1a1a3a" stroke="black" points="399.5,-1981 280.5,-1949 399.5,-1917 518.5,-1949 399.5,-1981"/>
<text text-anchor="middle" x="399.5" y="-1952.2" font-family="Helvetica,sans-Serif" font-size="11.00" fill="white">Check: nvflash binary</text>
<text text-anchor="middle" x="399.5" y="-1940.2" font-family="Helvetica,sans-Serif" font-size="11.00" fill="white">exists + executable?</text>
</g>
<!-- check_root&#45;&gt;check_nvflash -->
<g id="edge2" class="edge">
<title>check_root&#45;&gt;check_nvflash</title>
<path fill="none" stroke="#aaaaaa" d="M446.8,-2042.36C446.8,-2042.36 446.8,-1978.54 446.8,-1978.54"/>
<polygon fill="#aaaaaa" stroke="#aaaaaa" points="450.3,-1978.54 446.8,-1968.54 443.3,-1978.54 450.3,-1978.54"/>
<text text-anchor="middle" x="474.5" y="-2006" font-family="Helvetica,sans-Serif" font-size="10.00">yes</text>
</g>
<!-- abort -->
<g id="node21" class="node">
<title>abort</title>
<polygon fill="#331100" stroke="black" points="530.5,-1254 378.5,-1254 378.5,-1174 530.5,-1174 530.5,-1254"/>
<text text-anchor="middle" x="454.5" y="-1241.2" font-family="Helvetica,sans-Serif" font-size="11.00" fill="#ff6600">ABORT</text>
<text text-anchor="middle" x="454.5" y="-1229.2" font-family="Helvetica,sans-Serif" font-size="11.00" fill="#ff6600">Restore modules</text>
<text text-anchor="middle" x="454.5" y="-1217.2" font-family="Helvetica,sans-Serif" font-size="11.00" fill="#ff6600">Unmask nvidia&#45;persistenced</text>
<text text-anchor="middle" x="454.5" y="-1205.2" font-family="Helvetica,sans-Serif" font-size="11.00" fill="#ff6600">Start gpu&#45;watchdog</text>
<text text-anchor="middle" x="454.5" y="-1193.2" font-family="Helvetica,sans-Serif" font-size="11.00" fill="#ff6600">Restart lightdm</text>
<text text-anchor="middle" x="454.5" y="-1181.2" font-family="Helvetica,sans-Serif" font-size="11.00" fill="#ff6600">Exit 1</text>
</g>
<!-- check_root&#45;&gt;abort -->
<g id="edge3" class="edge">
<title>check_root&#45;&gt;abort</title>
<path fill="none" stroke="#ff4444" d="M524.5,-2042.13C524.5,-2042.13 524.5,-1264.1 524.5,-1264.1"/>
<polygon fill="#ff4444" stroke="#ff4444" points="528,-1264.1 524.5,-1254.1 521,-1264.1 528,-1264.1"/>
<text text-anchor="middle" x="579" y="-1633" font-family="Helvetica,sans-Serif" font-size="10.00">no</text>
</g>
<!-- check_rom -->
<g id="node4" class="node">
<title>check_rom</title>
<polygon fill="#1a1a3a" stroke="black" points="349.5,-1862 254.5,-1830 349.5,-1798 444.5,-1830 349.5,-1862"/>
<text text-anchor="middle" x="349.5" y="-1833.2" font-family="Helvetica,sans-Serif" font-size="11.00" fill="white">Check: ROM file</text>
<text text-anchor="middle" x="349.5" y="-1821.2" font-family="Helvetica,sans-Serif" font-size="11.00" fill="white">exists?</text>
</g>
<!-- check_nvflash&#45;&gt;check_rom -->
<g id="edge4" class="edge">
<title>check_nvflash&#45;&gt;check_rom</title>
<path fill="none" stroke="#aaaaaa" d="M362.5,-1926.9C362.5,-1926.9 362.5,-1867.86 362.5,-1867.86"/>
<polygon fill="#aaaaaa" stroke="#aaaaaa" points="366,-1867.86 362.5,-1857.86 359,-1867.86 366,-1867.86"/>
<text text-anchor="middle" x="382.5" y="-1887" font-family="Helvetica,sans-Serif" font-size="10.00">yes</text>
</g>
<!-- check_nvflash&#45;&gt;abort -->
<g id="edge5" class="edge">
<title>check_nvflash&#45;&gt;abort</title>
<path fill="none" stroke="#ff4444" d="M481.5,-1938.89C481.5,-1938.89 481.5,-1264.13 481.5,-1264.13"/>
<polygon fill="#ff4444" stroke="#ff4444" points="485,-1264.13 481.5,-1254.13 478,-1264.13 485,-1264.13"/>
<text text-anchor="middle" x="505" y="-1577.5" font-family="Helvetica,sans-Serif" font-size="10.00">no</text>
</g>
<!-- step0 -->
<g id="node5" class="node">
<title>step0</title>
<polygon fill="#1a2a1a" stroke="black" points="353,-1743 154,-1743 154,-1663 353,-1663 353,-1743"/>
<text text-anchor="middle" x="253.5" y="-1730.2" font-family="Helvetica,sans-Serif" font-size="11.00" fill="white">[0] Stop GPU Consumers</text>
<text text-anchor="middle" x="253.5" y="-1718.2" font-family="Helvetica,sans-Serif" font-size="11.00" fill="white">• ollama.service → systemctl stop</text>
<text text-anchor="middle" x="253.5" y="-1706.2" font-family="Helvetica,sans-Serif" font-size="11.00" fill="white">• gpu&#45;watchdog → stop + pkill &#45;9</text>
<text text-anchor="middle" x="253.5" y="-1694.2" font-family="Helvetica,sans-Serif" font-size="11.00" fill="white">• nvidia&#45;persistenced → mask + stop</text>
<text text-anchor="middle" x="253.5" y="-1682.2" font-family="Helvetica,sans-Serif" font-size="11.00" fill="white">• fuser &#45;k /dev/nvidia*</text>
<text text-anchor="middle" x="253.5" y="-1670.2" font-family="Helvetica,sans-Serif" font-size="11.00" fill="white">• Wait up to 30s for handles to release</text>
</g>
<!-- check_rom&#45;&gt;step0 -->
<g id="edge6" class="edge">
<title>check_rom&#45;&gt;step0</title>
<path fill="none" stroke="#aaaaaa" d="M303.75,-1813.4C303.75,-1813.4 303.75,-1753.12 303.75,-1753.12"/>
<polygon fill="#aaaaaa" stroke="#aaaaaa" points="307.25,-1753.12 303.75,-1743.12 300.25,-1753.12 307.25,-1753.12"/>
<text text-anchor="middle" x="309.5" y="-1768" font-family="Helvetica,sans-Serif" font-size="10.00">yes</text>
</g>
<!-- check_rom&#45;&gt;abort -->
<g id="edge7" class="edge">
<title>check_rom&#45;&gt;abort</title>
<path fill="none" stroke="#ff4444" d="M411.5,-1818.78C411.5,-1818.78 411.5,-1264.01 411.5,-1264.01"/>
<polygon fill="#ff4444" stroke="#ff4444" points="415,-1264.01 411.5,-1254.01 408,-1264.01 415,-1264.01"/>
<text text-anchor="middle" x="414" y="-1522" font-family="Helvetica,sans-Serif" font-size="10.00">no</text>
</g>
<!-- step1 -->
<g id="node6" class="node">
<title>step1</title>
<polygon fill="#2a1a00" stroke="black" points="324,-1608 183,-1608 183,-1552 324,-1552 324,-1608"/>
<text text-anchor="middle" x="253.5" y="-1595.2" font-family="Helvetica,sans-Serif" font-size="11.00" fill="white">[1] Stop LightDM</text>
<text text-anchor="middle" x="253.5" y="-1583.2" font-family="Helvetica,sans-Serif" font-size="11.00" fill="white">systemctl stop lightdm</text>
<text text-anchor="middle" x="253.5" y="-1571.2" font-family="Helvetica,sans-Serif" font-size="11.00" fill="white">X session terminates here</text>
<text text-anchor="middle" x="253.5" y="-1559.2" font-family="Helvetica,sans-Serif" font-size="11.00" fill="white">(sleep 4s)</text>
</g>
<!-- step0&#45;&gt;step1 -->
<g id="edge8" class="edge">
<title>step0&#45;&gt;step1</title>
<path fill="none" stroke="#aaaaaa" d="M253.5,-1662.73C253.5,-1662.73 253.5,-1618.29 253.5,-1618.29"/>
<polygon fill="#aaaaaa" stroke="#aaaaaa" points="257,-1618.29 253.5,-1608.29 250,-1618.29 257,-1618.29"/>
</g>
<!-- step2 -->
<g id="node7" class="node">
<title>step2</title>
<polygon fill="#1a2a1a" stroke="black" points="330.5,-1497 176.5,-1497 176.5,-1429 330.5,-1429 330.5,-1497"/>
<text text-anchor="middle" x="253.5" y="-1484.2" font-family="Helvetica,sans-Serif" font-size="11.00" fill="white">[2] Unload NVIDIA Modules</text>
<text text-anchor="middle" x="253.5" y="-1472.2" font-family="Helvetica,sans-Serif" font-size="11.00" fill="white">modprobe &#45;r nvidia_uvm</text>
<text text-anchor="middle" x="253.5" y="-1460.2" font-family="Helvetica,sans-Serif" font-size="11.00" fill="white">modprobe &#45;r nvidia_drm</text>
<text text-anchor="middle" x="253.5" y="-1448.2" font-family="Helvetica,sans-Serif" font-size="11.00" fill="white">modprobe &#45;r nvidia_modeset</text>
<text text-anchor="middle" x="253.5" y="-1436.2" font-family="Helvetica,sans-Serif" font-size="11.00" fill="white">modprobe &#45;r nvidia</text>
</g>
<!-- step1&#45;&gt;step2 -->
<g id="edge9" class="edge">
<title>step1&#45;&gt;step2</title>
<path fill="none" stroke="#aaaaaa" d="M253.5,-1551.98C253.5,-1551.98 253.5,-1507.05 253.5,-1507.05"/>
<polygon fill="#aaaaaa" stroke="#aaaaaa" points="257,-1507.05 253.5,-1497.05 250,-1507.05 257,-1507.05"/>
</g>
<!-- check_modules -->
<g id="node8" class="node">
<title>check_modules</title>
<polygon fill="#1a1a3a" stroke="black" points="253.5,-1384 178.5,-1352 253.5,-1320 328.5,-1352 253.5,-1384"/>
<text text-anchor="middle" x="253.5" y="-1355.2" font-family="Helvetica,sans-Serif" font-size="11.00" fill="white">Modules still</text>
<text text-anchor="middle" x="253.5" y="-1343.2" font-family="Helvetica,sans-Serif" font-size="11.00" fill="white">loaded?</text>
</g>
<!-- step2&#45;&gt;check_modules -->
<g id="edge10" class="edge">
<title>step2&#45;&gt;check_modules</title>
<path fill="none" stroke="#aaaaaa" d="M253.5,-1428.79C253.5,-1428.79 253.5,-1394.01 253.5,-1394.01"/>
<polygon fill="#aaaaaa" stroke="#aaaaaa" points="257,-1394.01 253.5,-1384.01 250,-1394.01 257,-1394.01"/>
</g>
<!-- step3 -->
<g id="node9" class="node">
<title>step3</title>
<polygon fill="#1a2a1a" stroke="black" points="297,-1236 158,-1236 158,-1192 297,-1192 297,-1236"/>
<text text-anchor="middle" x="227.5" y="-1223.2" font-family="Helvetica,sans-Serif" font-size="11.00" fill="white">[3] nvflash &#45;&#45;list</text>
<text text-anchor="middle" x="227.5" y="-1211.2" font-family="Helvetica,sans-Serif" font-size="11.00" fill="white">Verify GPU 1 (RTX 3080)</text>
<text text-anchor="middle" x="227.5" y="-1199.2" font-family="Helvetica,sans-Serif" font-size="11.00" fill="white">visible without driver</text>
</g>
<!-- check_modules&#45;&gt;step3 -->
<g id="edge12" class="edge">
<title>check_modules&#45;&gt;step3</title>
<path fill="none" stroke="#aaaaaa" d="M237.75,-1326.69C237.75,-1326.69 237.75,-1246.41 237.75,-1246.41"/>
<polygon fill="#aaaaaa" stroke="#aaaaaa" points="241.25,-1246.41 237.75,-1236.41 234.25,-1246.41 241.25,-1246.41"/>
<text text-anchor="middle" x="259" y="-1290" font-family="Helvetica,sans-Serif" font-size="10.00">no</text>
<text text-anchor="middle" x="259" y="-1279" font-family="Helvetica,sans-Serif" font-size="10.00">(unloaded OK)</text>
</g>
<!-- check_modules&#45;&gt;abort -->
<g id="edge11" class="edge">
<title>check_modules&#45;&gt;abort</title>
<path fill="none" stroke="#ff4444" d="M319,-1347.94C319,-1328.39 319,-1245 319,-1245 319,-1245 368.43,-1245 368.43,-1245"/>
<polygon fill="#ff4444" stroke="#ff4444" points="368.43,-1248.5 378.43,-1245 368.43,-1241.5 368.43,-1248.5"/>
<text text-anchor="middle" x="358" y="-1290" font-family="Helvetica,sans-Serif" font-size="10.00">yes</text>
<text text-anchor="middle" x="358" y="-1279" font-family="Helvetica,sans-Serif" font-size="10.00">(still loaded)</text>
</g>
<!-- step4 -->
<g id="node10" class="node">
<title>step4</title>
<polygon fill="#1a2a1a" stroke="black" points="315,-1129 140,-1129 140,-1073 315,-1073 315,-1129"/>
<text text-anchor="middle" x="227.5" y="-1116.2" font-family="Helvetica,sans-Serif" font-size="11.00" fill="white">[4] Backup Current VBIOS</text>
<text text-anchor="middle" x="227.5" y="-1104.2" font-family="Helvetica,sans-Serif" font-size="11.00" fill="white">nvflash &#45;i 1 &#45;&#45;save backup.rom</text>
<text text-anchor="middle" x="227.5" y="-1092.2" font-family="Helvetica,sans-Serif" font-size="11.00" fill="white">(skipped if backup already exists)</text>
<text text-anchor="middle" x="227.5" y="-1080.2" font-family="Helvetica,sans-Serif" font-size="11.00" fill="white">~999 KB saved</text>
</g>
<!-- step3&#45;&gt;step4 -->
<g id="edge13" class="edge">
<title>step3&#45;&gt;step4</title>
<path fill="none" stroke="#aaaaaa" d="M227.5,-1191.94C227.5,-1191.94 227.5,-1139.02 227.5,-1139.02"/>
<polygon fill="#aaaaaa" stroke="#aaaaaa" points="231,-1139.02 227.5,-1129.02 224,-1139.02 231,-1139.02"/>
</g>
<!-- step5 -->
<g id="node11" class="node">
<title>step5</title>
<polygon fill="#1a2a1a" stroke="black" points="323,-1028 132,-1028 132,-972 323,-972 323,-1028"/>
<text text-anchor="middle" x="227.5" y="-1015.2" font-family="Helvetica,sans-Serif" font-size="11.00" fill="white">[5] Check ROM Compatibility</text>
<text text-anchor="middle" x="227.5" y="-1003.2" font-family="Helvetica,sans-Serif" font-size="11.00" fill="white">nvflash &#45;i 1 &#45;&#45;check AS02.rom</text>
<text text-anchor="middle" x="227.5" y="-991.2" font-family="Helvetica,sans-Serif" font-size="11.00" fill="white">Expect subsystem 1043:87B0 match</text>
<text text-anchor="middle" x="227.5" y="-979.2" font-family="Helvetica,sans-Serif" font-size="11.00" fill="white">(proceed regardless of exit code)</text>
</g>
<!-- step4&#45;&gt;step5 -->
<g id="edge14" class="edge">
<title>step4&#45;&gt;step5</title>
<path fill="none" stroke="#aaaaaa" d="M227.5,-1072.87C227.5,-1072.87 227.5,-1038.33 227.5,-1038.33"/>
<polygon fill="#aaaaaa" stroke="#aaaaaa" points="231,-1038.33 227.5,-1028.33 224,-1038.33 231,-1038.33"/>
</g>
<!-- step5b -->
<g id="node12" class="node">
<title>step5b</title>
<polygon fill="#1a2a1a" stroke="black" points="293,-927 162,-927 162,-883 293,-883 293,-927"/>
<text text-anchor="middle" x="227.5" y="-914.2" font-family="Helvetica,sans-Serif" font-size="11.00" fill="white">[5b] Write&#45;Protect Off</text>
<text text-anchor="middle" x="227.5" y="-902.2" font-family="Helvetica,sans-Serif" font-size="11.00" fill="white">nvflash &#45;i 1 &#45;&#45;protectoff</text>
<text text-anchor="middle" x="227.5" y="-890.2" font-family="Helvetica,sans-Serif" font-size="11.00" fill="white">(via expect, TTY&#45;driven)</text>
</g>
<!-- step5&#45;&gt;step5b -->
<g id="edge15" class="edge">
<title>step5&#45;&gt;step5b</title>
<path fill="none" stroke="#aaaaaa" d="M227.5,-971.75C227.5,-971.75 227.5,-937.26 227.5,-937.26"/>
<polygon fill="#aaaaaa" stroke="#aaaaaa" points="231,-937.26 227.5,-927.26 224,-937.26 231,-937.26"/>
</g>
<!-- step6 -->
<g id="node13" class="node">
<title>step6</title>
<polygon fill="#220033" stroke="black" stroke-width="3" points="317.5,-838 137.5,-838 137.5,-770 317.5,-770 317.5,-838"/>
<text text-anchor="middle" x="227.5" y="-825.2" font-family="Helvetica,sans-Serif" font-size="11.00" fill="#ff99ff">[6] FLASH ROM</text>
<text text-anchor="middle" x="227.5" y="-813.2" font-family="Helvetica,sans-Serif" font-size="11.00" fill="#ff99ff">nvflash &#45;i 1 94.02.42.40.AS02.rom</text>
<text text-anchor="middle" x="227.5" y="-801.2" font-family="Helvetica,sans-Serif" font-size="11.00" fill="#ff99ff">expect drives y/n prompt</text>
<text text-anchor="middle" x="227.5" y="-789.2" font-family="Helvetica,sans-Serif" font-size="11.00" fill="#ff99ff">~30 seconds, 100% progress bar</text>
<text text-anchor="middle" x="227.5" y="-777.2" font-family="Helvetica,sans-Serif" font-size="11.00" fill="#ff99ff">EEPROM write cycle</text>
</g>
<!-- step5b&#45;&gt;step6 -->
<g id="edge16" class="edge">
<title>step5b&#45;&gt;step6</title>
<path fill="none" stroke="#aaaaaa" d="M227.5,-882.58C227.5,-882.58 227.5,-848.26 227.5,-848.26"/>
<polygon fill="#aaaaaa" stroke="#aaaaaa" points="231,-848.26 227.5,-838.26 224,-848.26 231,-848.26"/>
</g>
<!-- step7 -->
<g id="node14" class="node">
<title>step7</title>
<polygon fill="#1a2a1a" stroke="black" points="315.5,-725 139.5,-725 139.5,-681 315.5,-681 315.5,-725"/>
<text text-anchor="middle" x="227.5" y="-712.2" font-family="Helvetica,sans-Serif" font-size="11.00" fill="white">[7] Read&#45;Back Verify</text>
<text text-anchor="middle" x="227.5" y="-700.2" font-family="Helvetica,sans-Serif" font-size="11.00" fill="white">nvflash &#45;i 1 &#45;&#45;save /tmp/verify.rom</text>
<text text-anchor="middle" x="227.5" y="-688.2" font-family="Helvetica,sans-Serif" font-size="11.00" fill="white">Confirm non&#45;empty (999 KB)</text>
</g>
<!-- step6&#45;&gt;step7 -->
<g id="edge17" class="edge">
<title>step6&#45;&gt;step7</title>
<path fill="none" stroke="#aaaaaa" d="M227.5,-769.81C227.5,-769.81 227.5,-735.11 227.5,-735.11"/>
<polygon fill="#aaaaaa" stroke="#aaaaaa" points="231,-735.11 227.5,-725.11 224,-735.11 231,-735.11"/>
</g>
<!-- step8 -->
<g id="node15" class="node">
<title>step8</title>
<polygon fill="#1a2a1a" stroke="black" points="302,-636 153,-636 153,-568 302,-568 302,-636"/>
<text text-anchor="middle" x="227.5" y="-623.2" font-family="Helvetica,sans-Serif" font-size="11.00" fill="white">[8] Reload NVIDIA Modules</text>
<text text-anchor="middle" x="227.5" y="-611.2" font-family="Helvetica,sans-Serif" font-size="11.00" fill="white">modprobe nvidia</text>
<text text-anchor="middle" x="227.5" y="-599.2" font-family="Helvetica,sans-Serif" font-size="11.00" fill="white">modprobe nvidia_modeset</text>
<text text-anchor="middle" x="227.5" y="-587.2" font-family="Helvetica,sans-Serif" font-size="11.00" fill="white">modprobe nvidia_drm</text>
<text text-anchor="middle" x="227.5" y="-575.2" font-family="Helvetica,sans-Serif" font-size="11.00" fill="white">modprobe nvidia_uvm</text>
</g>
<!-- step7&#45;&gt;step8 -->
<g id="edge18" class="edge">
<title>step7&#45;&gt;step8</title>
<path fill="none" stroke="#aaaaaa" d="M227.5,-680.58C227.5,-680.58 227.5,-646.26 227.5,-646.26"/>
<polygon fill="#aaaaaa" stroke="#aaaaaa" points="231,-646.26 227.5,-636.26 224,-646.26 231,-646.26"/>
</g>
<!-- step9 -->
<g id="node16" class="node">
<title>step9</title>
<polygon fill="#1a2a1a" stroke="black" points="326,-523 129,-523 129,-467 326,-467 326,-523"/>
<text text-anchor="middle" x="227.5" y="-510.2" font-family="Helvetica,sans-Serif" font-size="11.00" fill="white">[9] Restore Services</text>
<text text-anchor="middle" x="227.5" y="-498.2" font-family="Helvetica,sans-Serif" font-size="11.00" fill="white">systemctl unmask nvidia&#45;persistenced</text>
<text text-anchor="middle" x="227.5" y="-486.2" font-family="Helvetica,sans-Serif" font-size="11.00" fill="white">systemctl start nvidia&#45;persistenced</text>
<text text-anchor="middle" x="227.5" y="-474.2" font-family="Helvetica,sans-Serif" font-size="11.00" fill="white">systemctl start gpu&#45;watchdog</text>
</g>
<!-- step8&#45;&gt;step9 -->
<g id="edge19" class="edge">
<title>step8&#45;&gt;step9</title>
<path fill="none" stroke="#aaaaaa" d="M227.5,-567.85C227.5,-567.85 227.5,-533.1 227.5,-533.1"/>
<polygon fill="#aaaaaa" stroke="#aaaaaa" points="231,-533.1 227.5,-523.1 224,-533.1 231,-533.1"/>
</g>
<!-- step10 -->
<g id="node17" class="node">
<title>step10</title>
<polygon fill="#2a1a00" stroke="black" points="288.5,-422 166.5,-422 166.5,-366 288.5,-366 288.5,-422"/>
<text text-anchor="middle" x="227.5" y="-409.2" font-family="Helvetica,sans-Serif" font-size="11.00" fill="white">[10] Restart LightDM</text>
<text text-anchor="middle" x="227.5" y="-397.2" font-family="Helvetica,sans-Serif" font-size="11.00" fill="white">systemctl start lightdm</text>
<text text-anchor="middle" x="227.5" y="-385.2" font-family="Helvetica,sans-Serif" font-size="11.00" fill="white">X session returns</text>
<text text-anchor="middle" x="227.5" y="-373.2" font-family="Helvetica,sans-Serif" font-size="11.00" fill="white">(sleep 3s)</text>
</g>
<!-- step9&#45;&gt;step10 -->
<g id="edge20" class="edge">
<title>step9&#45;&gt;step10</title>
<path fill="none" stroke="#aaaaaa" d="M227.5,-466.87C227.5,-466.87 227.5,-432.33 227.5,-432.33"/>
<polygon fill="#aaaaaa" stroke="#aaaaaa" points="231,-432.33 227.5,-422.33 224,-432.33 231,-432.33"/>
</g>
<!-- check_flash -->
<g id="node18" class="node">
<title>check_flash</title>
<polygon fill="#1a1a3a" stroke="black" points="227.5,-321 126.5,-289 227.5,-257 328.5,-289 227.5,-321"/>
<text text-anchor="middle" x="227.5" y="-292.2" font-family="Helvetica,sans-Serif" font-size="11.00" fill="white">FLASH_STATUS</text>
<text text-anchor="middle" x="227.5" y="-280.2" font-family="Helvetica,sans-Serif" font-size="11.00" fill="white">== 0?</text>
</g>
<!-- step10&#45;&gt;check_flash -->
<g id="edge21" class="edge">
<title>step10&#45;&gt;check_flash</title>
<path fill="none" stroke="#aaaaaa" d="M227.5,-365.86C227.5,-365.86 227.5,-331.3 227.5,-331.3"/>
<polygon fill="#aaaaaa" stroke="#aaaaaa" points="231,-331.3 227.5,-321.3 224,-331.3 231,-331.3"/>
</g>
<!-- success -->
<g id="node19" class="node">
<title>success</title>
<polygon fill="#003300" stroke="black" stroke-width="3" points="180.5,-202 34.5,-202 34.5,-122 180.5,-122 180.5,-202"/>
<text text-anchor="middle" x="107.5" y="-189.2" font-family="Helvetica,sans-Serif" font-size="11.00" fill="#00ff88">SUCCESS</text>
<text text-anchor="middle" x="107.5" y="-177.2" font-family="Helvetica,sans-Serif" font-size="11.00" fill="#00ff88">VBIOS updated: .65 → .66</text>
<text text-anchor="middle" x="107.5" y="-165.2" font-family="Helvetica,sans-Serif" font-size="11.00" fill="#00ff88">AS03 → AS02</text>
<text text-anchor="middle" x="107.5" y="-153.2" font-family="Helvetica,sans-Serif" font-size="11.00" fill="#00ff88">REBOOT REQUIRED</text>
<text text-anchor="middle" x="107.5" y="-141.2" font-family="Helvetica,sans-Serif" font-size="11.00" fill="#00ff88">for BAR1 expansion</text>
<text text-anchor="middle" x="107.5" y="-129.2" font-family="Helvetica,sans-Serif" font-size="11.00" fill="#00ff88">to take effect</text>
</g>
<!-- check_flash&#45;&gt;success -->
<g id="edge22" class="edge">
<title>check_flash&#45;&gt;success</title>
<path fill="none" stroke="#00cc66" d="M153.5,-280.27C153.5,-280.27 153.5,-212 153.5,-212"/>
<polygon fill="#00cc66" stroke="#00cc66" points="157,-212 153.5,-202 150,-212 157,-212"/>
<text text-anchor="middle" x="179" y="-227" font-family="Helvetica,sans-Serif" font-size="10.00">yes (0)</text>
</g>
<!-- failure -->
<g id="node20" class="node">
<title>failure</title>
<polygon fill="#330000" stroke="black" stroke-width="3" points="366,-196 217,-196 217,-128 366,-128 366,-196"/>
<text text-anchor="middle" x="291.5" y="-183.2" font-family="Helvetica,sans-Serif" font-size="11.00" fill="#ff4444">FAILED</text>
<text text-anchor="middle" x="291.5" y="-171.2" font-family="Helvetica,sans-Serif" font-size="11.00" fill="#ff4444">nvflash non&#45;zero exit</text>
<text text-anchor="middle" x="291.5" y="-159.2" font-family="Helvetica,sans-Serif" font-size="11.00" fill="#ff4444">VBIOS NOT changed</text>
<text text-anchor="middle" x="291.5" y="-147.2" font-family="Helvetica,sans-Serif" font-size="11.00" fill="#ff4444">Backup safe at:</text>
<text text-anchor="middle" x="291.5" y="-135.2" font-family="Helvetica,sans-Serif" font-size="11.00" fill="#ff4444">3080&#45;backup&#45;pre&#45;rebar.rom</text>
</g>
<!-- check_flash&#45;&gt;failure -->
<g id="edge23" class="edge">
<title>check_flash&#45;&gt;failure</title>
<path fill="none" stroke="#ff4444" d="M272.75,-271.07C272.75,-271.07 272.75,-206.07 272.75,-206.07"/>
<polygon fill="#ff4444" stroke="#ff4444" points="276.25,-206.07 272.75,-196.07 269.25,-206.07 276.25,-206.07"/>
<text text-anchor="middle" x="320.5" y="-227" font-family="Helvetica,sans-Serif" font-size="10.00">no (non&#45;zero)</text>
</g>
<!-- verify -->
<g id="node22" class="node">
<title>verify</title>
<polygon fill="#002244" stroke="black" stroke-dasharray="5,2" points="215,-56 0,-56 0,0 215,0 215,-56"/>
<text text-anchor="middle" x="107.5" y="-43.2" font-family="Helvetica,sans-Serif" font-size="11.00" fill="#66aaff">Post&#45;Reboot Verification</text>
<text text-anchor="middle" x="107.5" y="-31.2" font-family="Helvetica,sans-Serif" font-size="11.00" fill="#66aaff">nvidia&#45;smi &#45;q &#45;i 1 | grep BAR1</text>
<text text-anchor="middle" x="107.5" y="-19.2" font-family="Helvetica,sans-Serif" font-size="11.00" fill="#66aaff">lspci &#45;vvv &#45;s 0f:00.0 | grep Resizable BAR</text>
<text text-anchor="middle" x="107.5" y="-7.2" font-family="Helvetica,sans-Serif" font-size="11.00" fill="#66aaff">Expected: 8192 MiB</text>
</g>
<!-- success&#45;&gt;verify -->
<g id="edge24" class="edge">
<title>success&#45;&gt;verify</title>
<path fill="none" stroke="#00aa55" stroke-dasharray="5,2" d="M107.5,-121.8C107.5,-121.8 107.5,-66.27 107.5,-66.27"/>
<polygon fill="#00aa55" stroke="#00aa55" points="111,-66.27 107.5,-56.27 104,-66.27 111,-66.27"/>
<text text-anchor="middle" x="142" y="-92" font-family="Helvetica,sans-Serif" font-size="10.00">reboot, then run</text>
<text text-anchor="middle" x="142" y="-81" font-family="Helvetica,sans-Serif" font-size="10.00">vbios&#45;verify.sh</text>
</g>
</g>
</svg>
