<?xml version="1.0" encoding="UTF-8" standalone="no"?>
<!DOCTYPE svg PUBLIC "-//W3C//DTD SVG 1.1//EN"
 "http://www.w3.org/Graphics/SVG/1.1/DTD/svg11.dtd">
<!-- Generated by graphviz version 2.43.0 (0)
 -->
<!-- Title: service_dependency Pages: 1 -->
<svg width="1714pt" height="976pt"
 viewBox="0.00 0.00 1713.90 976.40" xmlns="http://www.w3.org/2000/svg" xmlns:xlink="http://www.w3.org/1999/xlink">
<g id="graph0" class="graph" transform="scale(1 1) rotate(0) translate(43.2 933.2)">
<title>service_dependency</title>
<polygon fill="#0d1117" stroke="transparent" points="-43.2,43.2 -43.2,-933.2 1670.7,-933.2 1670.7,43.2 -43.2,43.2"/>
<text text-anchor="middle" x="813.75" y="-873.2" font-family="Helvetica,sans-Serif" font-size="16.00" fill="white">Service Shutdown / Restart Order</text>
<text text-anchor="middle" x="813.75" y="-855.2" font-family="Helvetica,sans-Serif" font-size="16.00" fill="white">GPU Handle Release for Safe VBIOS Flash</text>
<g id="clust1" class="cluster">
<title>cluster_devices</title>
<polygon fill="#111111" stroke="#333333" points="8,-115 8,-193 640,-193 640,-115 8,-115"/>
<text text-anchor="middle" x="324" y="-176.2" font-family="Helvetica,sans-Serif" font-size="16.00" fill="#cccccc">GPU Device Files</text>
</g>
<g id="clust2" class="cluster">
<title>cluster_modules</title>
<polygon fill="#111133" stroke="#333366" points="1037,-8 1037,-340 1441,-340 1441,-8 1037,-8"/>
<text text-anchor="middle" x="1239" y="-323.2" font-family="Helvetica,sans-Serif" font-size="16.00" fill="#aaaaff">NVIDIA Kernel Modules (must be rmmod&#39;d for nvflash)</text>
</g>
<g id="clust3" class="cluster">
<title>cluster_services</title>
<polygon fill="#1a0e00" stroke="#664400" points="373,-240 373,-362 1029,-362 1029,-240 373,-240"/>
<text text-anchor="middle" x="701" y="-345.2" font-family="Helvetica,sans-Serif" font-size="16.00" fill="#ffaa00">Services Holding GPU Handles (SHUTDOWN ORDER →)</text>
</g>
<g id="clust4" class="cluster">
<title>cluster_display</title>
<polygon fill="#111122" stroke="#333355" points="1163,-398 1163,-838 1337,-838 1337,-398 1163,-398"/>
<text text-anchor="middle" x="1250" y="-821.2" font-family="Helvetica,sans-Serif" font-size="16.00" fill="#aaaacc">Display Stack</text>
</g>
<g id="clust5" class="cluster">
<title>cluster_systemd_run</title>
<polygon fill="#002211" stroke="#226644" points="148,-258 148,-619 346,-619 346,-258 148,-258"/>
<text text-anchor="middle" x="247" y="-602.2" font-family="Helvetica,sans-Serif" font-size="16.00" fill="#88ffcc">Safe Execution Context</text>
<text text-anchor="middle" x="247" y="-584.2" font-family="Helvetica,sans-Serif" font-size="16.00" fill="#88ffcc">(survives X death)</text>
</g>
<!-- dev_nvidiactl -->
<g id="node1" class="node">
<title>dev_nvidiactl</title>
<polygon fill="#222222" stroke="black" points="514.5,-159 431.5,-159 431.5,-123 514.5,-123 514.5,-159"/>
<text text-anchor="middle" x="473" y="-144.2" font-family="Helvetica,sans-Serif" font-size="11.00" fill="#cccccc">/dev/nvidiactl</text>
<text text-anchor="middle" x="473" y="-132.2" font-family="Helvetica,sans-Serif" font-size="11.00" fill="#cccccc">(GPU control)</text>
</g>
<!-- dev_nvidia0 -->
<g id="node2" class="node">
<title>dev_nvidia0</title>
<polygon fill="#222222" stroke="black" points="632,-159 558,-159 558,-123 632,-123 632,-159"/>
<text text-anchor="middle" x="595" y="-144.2" font-family="Helvetica,sans-Serif" font-size="11.00" fill="#cccccc">/dev/nvidia0</text>
<text text-anchor="middle" x="595" y="-132.2" font-family="Helvetica,sans-Serif" font-size="11.00" fill="#cccccc">(RTX 5080)</text>
</g>
<!-- dev_nvidia1 -->
<g id="node3" class="node">
<title>dev_nvidia1</title>
<polygon fill="#222222" stroke="black" points="388,-159 314,-159 314,-123 388,-123 388,-159"/>
<text text-anchor="middle" x="351" y="-144.2" font-family="Helvetica,sans-Serif" font-size="11.00" fill="#cccccc">/dev/nvidia1</text>
<text text-anchor="middle" x="351" y="-132.2" font-family="Helvetica,sans-Serif" font-size="11.00" fill="#cccccc">(RTX 3080)</text>
</g>
<!-- dev_uvm -->
<g id="node4" class="node">
<title>dev_uvm</title>
<polygon fill="#222222" stroke="black" points="271,-159 173,-159 173,-123 271,-123 271,-159"/>
<text text-anchor="middle" x="222" y="-144.2" font-family="Helvetica,sans-Serif" font-size="11.00" fill="#cccccc">/dev/nvidia&#45;uvm</text>
<text text-anchor="middle" x="222" y="-132.2" font-family="Helvetica,sans-Serif" font-size="11.00" fill="#cccccc">(unified memory)</text>
</g>
<!-- dev_modeset -->
<g id="node5" class="node">
<title>dev_modeset</title>
<polygon fill="#222222" stroke="black" points="129.5,-159 16.5,-159 16.5,-123 129.5,-123 129.5,-159"/>
<text text-anchor="middle" x="73" y="-144.2" font-family="Helvetica,sans-Serif" font-size="11.00" fill="#cccccc">/dev/nvidia&#45;modeset</text>
<text text-anchor="middle" x="73" y="-132.2" font-family="Helvetica,sans-Serif" font-size="11.00" fill="#cccccc">(display)</text>
</g>
<!-- mod_uvm -->
<g id="node6" class="node">
<title>mod_uvm</title>
<polygon fill="#222255" stroke="black" points="1177,-159 1045,-159 1045,-123 1177,-123 1177,-159"/>
<text text-anchor="middle" x="1111" y="-144.2" font-family="Helvetica,sans-Serif" font-size="11.00" fill="#aaaaff">nvidia_uvm</text>
<text text-anchor="middle" x="1111" y="-132.2" font-family="Helvetica,sans-Serif" font-size="11.00" fill="#aaaaff">(CUDA unified memory)</text>
</g>
<!-- mod_nvidia -->
<g id="node9" class="node">
<title>mod_nvidia</title>
<polygon fill="#222255" stroke="black" points="1127.5,-52 1052.5,-52 1052.5,-16 1127.5,-16 1127.5,-52"/>
<text text-anchor="middle" x="1090" y="-37.2" font-family="Helvetica,sans-Serif" font-size="11.00" fill="#aaaaff">nvidia</text>
<text text-anchor="middle" x="1090" y="-25.2" font-family="Helvetica,sans-Serif" font-size="11.00" fill="#aaaaff">(core driver)</text>
</g>
<!-- mod_uvm&#45;&gt;mod_nvidia -->
<g id="edge6" class="edge">
<title>mod_uvm&#45;&gt;mod_nvidia</title>
<path fill="none" stroke="#666699" stroke-dasharray="5,2" d="M1090,-122.85C1090,-122.85 1090,-62.24 1090,-62.24"/>
<polygon fill="#666699" stroke="#666699" points="1093.5,-62.24 1090,-52.24 1086.5,-62.24 1093.5,-62.24"/>
<text text-anchor="middle" x="1124.5" y="-80" font-family="Helvetica,sans-Serif" font-size="10.00">depends on</text>
</g>
<!-- mod_drm -->
<g id="node7" class="node">
<title>mod_drm</title>
<polygon fill="#222255" stroke="black" points="1234.5,-306 1121.5,-306 1121.5,-270 1234.5,-270 1234.5,-306"/>
<text text-anchor="middle" x="1178" y="-291.2" font-family="Helvetica,sans-Serif" font-size="11.00" fill="#aaaaff">nvidia_drm</text>
<text text-anchor="middle" x="1178" y="-279.2" font-family="Helvetica,sans-Serif" font-size="11.00" fill="#aaaaff">(DRM/KMS display)</text>
</g>
<!-- mod_modeset -->
<g id="node8" class="node">
<title>mod_modeset</title>
<polygon fill="#222255" stroke="black" points="1312,-159 1220,-159 1220,-123 1312,-123 1312,-159"/>
<text text-anchor="middle" x="1266" y="-144.2" font-family="Helvetica,sans-Serif" font-size="11.00" fill="#aaaaff">nvidia_modeset</text>
<text text-anchor="middle" x="1266" y="-132.2" font-family="Helvetica,sans-Serif" font-size="11.00" fill="#aaaaff">(modesetting)</text>
</g>
<!-- mod_drm&#45;&gt;mod_modeset -->
<g id="edge7" class="edge">
<title>mod_drm&#45;&gt;mod_modeset</title>
<path fill="none" stroke="#666699" stroke-dasharray="5,2" d="M1229.67,-269.97C1229.67,-269.97 1229.67,-169.17 1229.67,-169.17"/>
<polygon fill="#666699" stroke="#666699" points="1233.17,-169.17 1229.67,-159.17 1226.17,-169.17 1233.17,-169.17"/>
<text text-anchor="middle" x="1235.5" y="-209.5" font-family="Helvetica,sans-Serif" font-size="10.00">depends on</text>
</g>
<!-- mod_modeset&#45;&gt;mod_nvidia -->
<g id="edge8" class="edge">
<title>mod_modeset&#45;&gt;mod_nvidia</title>
<path fill="none" stroke="#666699" stroke-dasharray="5,2" d="M1266,-122.85C1266,-92.32 1266,-34 1266,-34 1266,-34 1137.76,-34 1137.76,-34"/>
<polygon fill="#666699" stroke="#666699" points="1137.76,-30.5 1127.76,-34 1137.76,-37.5 1137.76,-30.5"/>
<text text-anchor="middle" x="1257.5" y="-80" font-family="Helvetica,sans-Serif" font-size="10.00">depends on</text>
</g>
<!-- ollama_svc -->
<g id="node10" class="node">
<title>ollama_svc</title>
<polygon fill="#442200" stroke="black" points="1021.5,-310 816.5,-310 816.5,-266 1021.5,-266 1021.5,-310"/>
<text text-anchor="middle" x="919" y="-297.2" font-family="Helvetica,sans-Serif" font-size="11.00" fill="#ffcc66">ollama.service</text>
<text text-anchor="middle" x="919" y="-285.2" font-family="Helvetica,sans-Serif" font-size="11.00" fill="#ffcc66">Holds: /dev/nvidia0, nvidia1, nvidia&#45;uvm</text>
<text text-anchor="middle" x="919" y="-273.2" font-family="Helvetica,sans-Serif" font-size="11.00" fill="#ffcc66">Action: systemctl stop ollama</text>
</g>
<!-- ollama_svc&#45;&gt;mod_uvm -->
<g id="edge9" class="edge">
<title>ollama_svc&#45;&gt;mod_uvm</title>
<path fill="none" stroke="#996600" stroke-dasharray="1,5" d="M1021.62,-288C1054.82,-288 1083.25,-288 1083.25,-288 1083.25,-288 1083.25,-169.03 1083.25,-169.03"/>
<polygon fill="#996600" stroke="#996600" points="1086.75,-169.03 1083.25,-159.03 1079.75,-169.03 1086.75,-169.03"/>
<text text-anchor="middle" x="1048" y="-209.5" font-family="Helvetica,sans-Serif" font-size="10.00">uses</text>
</g>
<!-- ollama_svc&#45;&gt;mod_nvidia -->
<g id="edge10" class="edge">
<title>ollama_svc&#45;&gt;mod_nvidia</title>
<path fill="none" stroke="#996600" stroke-dasharray="1,5" d="M919,-265.99C919,-205.3 919,-40 919,-40 919,-40 1042.47,-40 1042.47,-40"/>
<polygon fill="#996600" stroke="#996600" points="1042.47,-43.5 1052.47,-40 1042.47,-36.5 1042.47,-43.5"/>
<text text-anchor="middle" x="946" y="-138.5" font-family="Helvetica,sans-Serif" font-size="10.00">uses</text>
</g>
<!-- watchdog_svc -->
<g id="node11" class="node">
<title>watchdog_svc</title>
<polygon fill="#442200" stroke="black" points="773,-316 609,-316 609,-260 773,-260 773,-316"/>
<text text-anchor="middle" x="691" y="-303.2" font-family="Helvetica,sans-Serif" font-size="11.00" fill="#ffcc66">gpu&#45;watchdog.service</text>
<text text-anchor="middle" x="691" y="-291.2" font-family="Helvetica,sans-Serif" font-size="11.00" fill="#ffcc66">(gpu_thermal.watchdog)</text>
<text text-anchor="middle" x="691" y="-279.2" font-family="Helvetica,sans-Serif" font-size="11.00" fill="#ffcc66">Restart=always — must stop</text>
<text text-anchor="middle" x="691" y="-267.2" font-family="Helvetica,sans-Serif" font-size="11.00" fill="#ffcc66">Action: systemctl stop + pkill &#45;9</text>
</g>
<!-- persistenced_svc -->
<g id="node12" class="node">
<title>persistenced_svc</title>
<polygon fill="#552200" stroke="black" stroke-width="3" points="565.5,-328 380.5,-328 380.5,-248 565.5,-248 565.5,-328"/>
<text text-anchor="middle" x="473" y="-315.2" font-family="Helvetica,sans-Serif" font-size="11.00" fill="#ffaa44">nvidia&#45;persistenced.service</text>
<text text-anchor="middle" x="473" y="-303.2" font-family="Helvetica,sans-Serif" font-size="11.00" fill="#ffaa44">★ Holds handles even when idle ★</text>
<text text-anchor="middle" x="473" y="-291.2" font-family="Helvetica,sans-Serif" font-size="11.00" fill="#ffaa44">Holds: nvidiactl, nvidia0, nvidia1,</text>
<text text-anchor="middle" x="473" y="-279.2" font-family="Helvetica,sans-Serif" font-size="11.00" fill="#ffaa44">nvidia&#45;modeset (all)</text>
<text text-anchor="middle" x="473" y="-267.2" font-family="Helvetica,sans-Serif" font-size="11.00" fill="#ffaa44">Action: MASK first, then stop</text>
<text text-anchor="middle" x="473" y="-255.2" font-family="Helvetica,sans-Serif" font-size="11.00" fill="#ffaa44">(mask prevents auto&#45;restart)</text>
</g>
<!-- persistenced_svc&#45;&gt;dev_nvidiactl -->
<g id="edge21" class="edge">
<title>persistenced_svc&#45;&gt;dev_nvidiactl</title>
<path fill="none" stroke="#cc4400" stroke-dasharray="1,5" d="M473,-247.83C473,-247.83 473,-169.28 473,-169.28"/>
<polygon fill="#cc4400" stroke="#cc4400" points="476.5,-169.28 473,-159.28 469.5,-169.28 476.5,-169.28"/>
</g>
<!-- persistenced_svc&#45;&gt;dev_nvidia0 -->
<g id="edge22" class="edge">
<title>persistenced_svc&#45;&gt;dev_nvidia0</title>
<path fill="none" stroke="#cc4400" stroke-dasharray="1,5" d="M561.75,-247.83C561.75,-247.83 561.75,-169.28 561.75,-169.28"/>
<polygon fill="#cc4400" stroke="#cc4400" points="565.25,-169.28 561.75,-159.28 558.25,-169.28 565.25,-169.28"/>
</g>
<!-- persistenced_svc&#45;&gt;dev_nvidia1 -->
<g id="edge23" class="edge">
<title>persistenced_svc&#45;&gt;dev_nvidia1</title>
<path fill="none" stroke="#cc4400" stroke-dasharray="1,5" d="M384.25,-247.83C384.25,-247.83 384.25,-169.28 384.25,-169.28"/>
<polygon fill="#cc4400" stroke="#cc4400" points="387.75,-169.28 384.25,-159.28 380.75,-169.28 387.75,-169.28"/>
</g>
<!-- persistenced_svc&#45;&gt;dev_modeset -->
<g id="edge24" class="edge">
<title>persistenced_svc&#45;&gt;dev_modeset</title>
<path fill="none" stroke="#cc4400" stroke-dasharray="1,5" d="M380.48,-257C262.33,-257 73,-257 73,-257 73,-257 73,-169.12 73,-169.12"/>
<polygon fill="#cc4400" stroke="#cc4400" points="76.5,-169.12 73,-159.12 69.5,-169.13 76.5,-169.12"/>
</g>
<!-- persistenced_svc&#45;&gt;mod_modeset -->
<g id="edge12" class="edge">
<title>persistenced_svc&#45;&gt;mod_modeset</title>
<path fill="none" stroke="#cc4400" stroke-dasharray="1,5" d="M565.57,-254C766.52,-254 1224.83,-254 1224.83,-254 1224.83,-254 1224.83,-169.16 1224.83,-169.16"/>
<polygon fill="#cc4400" stroke="#cc4400" points="1228.33,-169.16 1224.83,-159.16 1221.33,-169.16 1228.33,-169.16"/>
<text text-anchor="middle" x="872" y="-209.5" font-family="Helvetica,sans-Serif" font-size="10.00">uses</text>
</g>
<!-- persistenced_svc&#45;&gt;mod_nvidia -->
<g id="edge11" class="edge">
<title>persistenced_svc&#45;&gt;mod_nvidia</title>
<path fill="none" stroke="#cc4400" stroke-width="2" stroke-dasharray="1,5" d="M536.25,-247.94C536.25,-175.01 536.25,-28 536.25,-28 536.25,-28 1042.37,-28 1042.37,-28"/>
<polygon fill="#cc4400" stroke="#cc4400" stroke-width="2" points="1042.37,-31.5 1052.37,-28 1042.37,-24.5 1042.37,-31.5"/>
<text text-anchor="middle" x="791.5" y="-144" font-family="Helvetica,sans-Serif" font-size="10.00">uses</text>
<text text-anchor="middle" x="791.5" y="-133" font-family="Helvetica,sans-Serif" font-size="10.00">(all handles)</text>
</g>
<!-- xfce_terminal -->
<g id="node13" class="node">
<title>xfce_terminal</title>
<polygon fill="#222244" stroke="black" points="1320,-804 1180,-804 1180,-760 1320,-760 1320,-804"/>
<text text-anchor="middle" x="1250" y="-791.2" font-family="Helvetica,sans-Serif" font-size="11.00" fill="#aaaacc">xfce4&#45;terminal</text>
<text text-anchor="middle" x="1250" y="-779.2" font-family="Helvetica,sans-Serif" font-size="11.00" fill="#aaaacc">(this session — WILL DIE</text>
<text text-anchor="middle" x="1250" y="-767.2" font-family="Helvetica,sans-Serif" font-size="11.00" fill="#aaaacc">when LightDM stops)</text>
</g>
<!-- xfce4_panel -->
<g id="node16" class="node">
<title>xfce4_panel</title>
<polygon fill="#222244" stroke="black" points="1300.5,-699 1199.5,-699 1199.5,-663 1300.5,-663 1300.5,-699"/>
<text text-anchor="middle" x="1250" y="-684.2" font-family="Helvetica,sans-Serif" font-size="11.00" fill="#aaaacc">xfce4&#45;panel</text>
<text text-anchor="middle" x="1250" y="-672.2" font-family="Helvetica,sans-Serif" font-size="11.00" fill="#aaaacc">(Xfce compositor)</text>
</g>
<!-- xfce_terminal&#45;&gt;xfce4_panel -->
<g id="edge1" class="edge">
<title>xfce_terminal&#45;&gt;xfce4_panel</title>
<path fill="none" stroke="#555577" d="M1250,-759.58C1250,-759.58 1250,-709.3 1250,-709.3"/>
<polygon fill="#555577" stroke="#555577" points="1253.5,-709.3 1250,-699.3 1246.5,-709.31 1253.5,-709.3"/>
<text text-anchor="middle" x="1266" y="-727" font-family="Helvetica,sans-Serif" font-size="10.00">child of</text>
</g>
<!-- lightdm_svc -->
<g id="node14" class="node">
<title>lightdm_svc</title>
<polygon fill="#222244" stroke="black" points="1329,-450 1171,-450 1171,-406 1329,-406 1329,-450"/>
<text text-anchor="middle" x="1250" y="-437.2" font-family="Helvetica,sans-Serif" font-size="11.00" fill="#aaaacc">lightdm.service</text>
<text text-anchor="middle" x="1250" y="-425.2" font-family="Helvetica,sans-Serif" font-size="11.00" fill="#aaaacc">X11 display manager</text>
<text text-anchor="middle" x="1250" y="-413.2" font-family="Helvetica,sans-Serif" font-size="11.00" fill="#aaaacc">Action: systemctl stop lightdm</text>
</g>
<!-- lightdm_svc&#45;&gt;mod_drm -->
<g id="edge13" class="edge">
<title>lightdm_svc&#45;&gt;mod_drm</title>
<path fill="none" stroke="#666699" stroke-dasharray="1,5" d="M1202.75,-405.82C1202.75,-405.82 1202.75,-316.07 1202.75,-316.07"/>
<polygon fill="#666699" stroke="#666699" points="1206.25,-316.07 1202.75,-306.07 1199.25,-316.07 1206.25,-316.07"/>
<text text-anchor="middle" x="1225" y="-373" font-family="Helvetica,sans-Serif" font-size="10.00">uses</text>
</g>
<!-- lightdm_svc&#45;&gt;mod_modeset -->
<g id="edge14" class="edge">
<title>lightdm_svc&#45;&gt;mod_modeset</title>
<path fill="none" stroke="#666699" stroke-dasharray="1,5" d="M1273.25,-405.96C1273.25,-405.96 1273.25,-169.33 1273.25,-169.33"/>
<polygon fill="#666699" stroke="#666699" points="1276.75,-169.33 1273.25,-159.33 1269.75,-169.33 1276.75,-169.33"/>
<text text-anchor="middle" x="1332" y="-285.5" font-family="Helvetica,sans-Serif" font-size="10.00">uses</text>
</g>
<!-- xorg -->
<g id="node15" class="node">
<title>xorg</title>
<polygon fill="#222244" stroke="black" points="1300.5,-557 1199.5,-557 1199.5,-521 1300.5,-521 1300.5,-557"/>
<text text-anchor="middle" x="1250" y="-542.2" font-family="Helvetica,sans-Serif" font-size="11.00" fill="#aaaacc">Xorg / X11 server</text>
<text text-anchor="middle" x="1250" y="-530.2" font-family="Helvetica,sans-Serif" font-size="11.00" fill="#aaaacc">(child of LightDM)</text>
</g>
<!-- xorg&#45;&gt;lightdm_svc -->
<g id="edge3" class="edge">
<title>xorg&#45;&gt;lightdm_svc</title>
<path fill="none" stroke="#555577" d="M1250,-520.67C1250,-520.67 1250,-460.18 1250,-460.18"/>
<polygon fill="#555577" stroke="#555577" points="1253.5,-460.18 1250,-450.18 1246.5,-460.18 1253.5,-460.18"/>
<text text-anchor="middle" x="1277" y="-478" font-family="Helvetica,sans-Serif" font-size="10.00">managed by</text>
</g>
<!-- xfce4_panel&#45;&gt;xorg -->
<g id="edge2" class="edge">
<title>xfce4_panel&#45;&gt;xorg</title>
<path fill="none" stroke="#555577" d="M1250,-662.73C1250,-662.73 1250,-567.2 1250,-567.2"/>
<polygon fill="#555577" stroke="#555577" points="1253.5,-567.2 1250,-557.2 1246.5,-567.2 1253.5,-567.2"/>
<text text-anchor="middle" x="1266" y="-630" font-family="Helvetica,sans-Serif" font-size="10.00">child of</text>
</g>
<!-- systemd_run -->
<g id="node17" class="node">
<title>systemd_run</title>
<polygon fill="#004422" stroke="black" points="320,-567 174,-567 174,-511 320,-511 320,-567"/>
<text text-anchor="middle" x="247" y="-554.2" font-family="Helvetica,sans-Serif" font-size="11.00" fill="#88ffcc">systemd&#45;run</text>
<text text-anchor="middle" x="247" y="-542.2" font-family="Helvetica,sans-Serif" font-size="11.00" fill="#88ffcc">&#45;&#45;unit=rebar&#45;flash</text>
<text text-anchor="middle" x="247" y="-530.2" font-family="Helvetica,sans-Serif" font-size="11.00" fill="#88ffcc">Independent of X session</text>
<text text-anchor="middle" x="247" y="-518.2" font-family="Helvetica,sans-Serif" font-size="11.00" fill="#88ffcc">Owned by PID 1 (systemd)</text>
</g>
<!-- rebar_sh -->
<g id="node18" class="node">
<title>rebar_sh</title>
<polygon fill="#003322" stroke="black" points="329,-450 165,-450 165,-406 329,-406 329,-450"/>
<text text-anchor="middle" x="247" y="-437.2" font-family="Helvetica,sans-Serif" font-size="11.00" fill="#88ffcc">rebar&#45;enable.sh</text>
<text text-anchor="middle" x="247" y="-425.2" font-family="Helvetica,sans-Serif" font-size="11.00" fill="#88ffcc">Runs as root in service context</text>
<text text-anchor="middle" x="247" y="-413.2" font-family="Helvetica,sans-Serif" font-size="11.00" fill="#88ffcc">Logs to flash&#45;session.log</text>
</g>
<!-- systemd_run&#45;&gt;rebar_sh -->
<g id="edge4" class="edge">
<title>systemd_run&#45;&gt;rebar_sh</title>
<path fill="none" stroke="#00aa66" d="M247,-510.99C247,-510.99 247,-460.05 247,-460.05"/>
<polygon fill="#00aa66" stroke="#00aa66" points="250.5,-460.05 247,-450.05 243.5,-460.05 250.5,-460.05"/>
</g>
<!-- nvflash_bin -->
<g id="node19" class="node">
<title>nvflash_bin</title>
<polygon fill="#002211" stroke="black" points="337.5,-310 156.5,-310 156.5,-266 337.5,-266 337.5,-310"/>
<text text-anchor="middle" x="247" y="-297.2" font-family="Helvetica,sans-Serif" font-size="11.00" fill="#66aacc">nvflash 5.867.0</text>
<text text-anchor="middle" x="247" y="-285.2" font-family="Helvetica,sans-Serif" font-size="11.00" fill="#66aacc">Linux binary — reads /dev/nvidia*</text>
<text text-anchor="middle" x="247" y="-273.2" font-family="Helvetica,sans-Serif" font-size="11.00" fill="#66aacc">directly (needs modules unloaded)</text>
</g>
<!-- rebar_sh&#45;&gt;nvflash_bin -->
<g id="edge5" class="edge">
<title>rebar_sh&#45;&gt;nvflash_bin</title>
<path fill="none" stroke="#00aa66" d="M247,-405.82C247,-405.82 247,-320.08 247,-320.08"/>
<polygon fill="#00aa66" stroke="#00aa66" points="250.5,-320.08 247,-310.08 243.5,-320.08 250.5,-320.08"/>
</g>
<!-- nvflash_bin&#45;&gt;dev_nvidia1 -->
<g id="edge25" class="edge">
<title>nvflash_bin&#45;&gt;dev_nvidia1</title>
<path fill="none" stroke="#00aaff" stroke-width="2" d="M325.75,-265.99C325.75,-265.99 325.75,-169.43 325.75,-169.43"/>
<polygon fill="#00aaff" stroke="#00aaff" stroke-width="2" points="329.25,-169.43 325.75,-159.43 322.25,-169.43 329.25,-169.43"/>
<text text-anchor="middle" x="294.5" y="-215" font-family="Helvetica,sans-Serif" font-size="10.00">flash target</text>
<text text-anchor="middle" x="294.5" y="-204" font-family="Helvetica,sans-Serif" font-size="10.00">(GPU 1 = RTX 3080)</text>
</g>
<!-- seq1 -->
<g id="node20" class="node">
<title>seq1</title>
<polygon fill="#331100" stroke="transparent" points="1576.5,-800 1487.5,-800 1487.5,-764 1576.5,-764 1576.5,-800"/>
<text text-anchor="middle" x="1532" y="-779.2" font-family="Helvetica,sans-Serif" font-size="11.00" fill="#ff9944">① Stop Ollama</text>
</g>
<!-- seq2 -->
<g id="node21" class="node">
<title>seq2</title>
<polygon fill="#331100" stroke="transparent" points="1593.5,-699 1470.5,-699 1470.5,-663 1593.5,-663 1593.5,-699"/>
<text text-anchor="middle" x="1532" y="-678.2" font-family="Helvetica,sans-Serif" font-size="11.00" fill="#ff9944">② Stop gpu&#45;watchdog</text>
</g>
<!-- seq1&#45;&gt;seq2 -->
<g id="edge15" class="edge">
<title>seq1&#45;&gt;seq2</title>
<path fill="none" stroke="#ff9944" stroke-width="2" d="M1532,-763.94C1532,-763.94 1532,-709.24 1532,-709.24"/>
<polygon fill="#ff9944" stroke="#ff9944" stroke-width="2" points="1535.5,-709.24 1532,-699.24 1528.5,-709.24 1535.5,-709.24"/>
</g>
<!-- seq3 -->
<g id="node22" class="node">
<title>seq3</title>
<polygon fill="#331100" stroke="transparent" points="1627.5,-557 1436.5,-557 1436.5,-521 1627.5,-521 1627.5,-557"/>
<text text-anchor="middle" x="1532" y="-536.2" font-family="Helvetica,sans-Serif" font-size="11.00" fill="#ff9944">③ MASK + Stop nvidia&#45;persistenced</text>
</g>
<!-- seq2&#45;&gt;seq3 -->
<g id="edge16" class="edge">
<title>seq2&#45;&gt;seq3</title>
<path fill="none" stroke="#ff9944" stroke-width="2" d="M1532,-662.73C1532,-662.73 1532,-567.2 1532,-567.2"/>
<polygon fill="#ff9944" stroke="#ff9944" stroke-width="2" points="1535.5,-567.2 1532,-557.2 1528.5,-567.2 1535.5,-567.2"/>
</g>
<!-- seq4 -->
<g id="node23" class="node">
<title>seq4</title>
<polygon fill="#331100" stroke="transparent" points="1594,-446 1470,-446 1470,-410 1594,-410 1594,-446"/>
<text text-anchor="middle" x="1532" y="-425.2" font-family="Helvetica,sans-Serif" font-size="11.00" fill="#ff9944">④ fuser &#45;k /dev/nvidia*</text>
</g>
<!-- seq3&#45;&gt;seq4 -->
<g id="edge17" class="edge">
<title>seq3&#45;&gt;seq4</title>
<path fill="none" stroke="#ff9944" stroke-width="2" d="M1532,-520.67C1532,-520.67 1532,-456.36 1532,-456.36"/>
<polygon fill="#ff9944" stroke="#ff9944" stroke-width="2" points="1535.5,-456.36 1532,-446.36 1528.5,-456.36 1535.5,-456.36"/>
</g>
<!-- seq5 -->
<g id="node24" class="node">
<title>seq5</title>
<polygon fill="#331100" stroke="transparent" points="1612.5,-306 1451.5,-306 1451.5,-270 1612.5,-270 1612.5,-306"/>
<text text-anchor="middle" x="1532" y="-285.2" font-family="Helvetica,sans-Serif" font-size="11.00" fill="#ff9944">⑤ Stop LightDM (X dies here)</text>
</g>
<!-- seq4&#45;&gt;seq5 -->
<g id="edge18" class="edge">
<title>seq4&#45;&gt;seq5</title>
<path fill="none" stroke="#ff9944" stroke-width="2" d="M1532,-409.98C1532,-409.98 1532,-316.39 1532,-316.39"/>
<polygon fill="#ff9944" stroke="#ff9944" stroke-width="2" points="1535.5,-316.39 1532,-306.39 1528.5,-316.39 1535.5,-316.39"/>
</g>
<!-- seq6 -->
<g id="node25" class="node">
<title>seq6</title>
<polygon fill="#331100" stroke="transparent" points="1615,-169 1449,-169 1449,-113 1615,-113 1615,-169"/>
<text text-anchor="middle" x="1532" y="-156.2" font-family="Helvetica,sans-Serif" font-size="11.00" fill="#ff9944">⑥ modprobe &#45;r nvidia_uvm</text>
<text text-anchor="middle" x="1532" y="-144.2" font-family="Helvetica,sans-Serif" font-size="11.00" fill="#ff9944"> &#160;&#160;&#160;modprobe &#45;r nvidia_drm</text>
<text text-anchor="middle" x="1532" y="-132.2" font-family="Helvetica,sans-Serif" font-size="11.00" fill="#ff9944"> &#160;&#160;&#160;modprobe &#45;r nvidia_modeset</text>
<text text-anchor="middle" x="1532" y="-120.2" font-family="Helvetica,sans-Serif" font-size="11.00" fill="#ff9944"> &#160;&#160;&#160;modprobe &#45;r nvidia</text>
</g>
<!-- seq5&#45;&gt;seq6 -->
<g id="edge19" class="edge">
<title>seq5&#45;&gt;seq6</title>
<path fill="none" stroke="#ff9944" stroke-width="2" d="M1532,-269.97C1532,-269.97 1532,-179.26 1532,-179.26"/>
<polygon fill="#ff9944" stroke="#ff9944" stroke-width="2" points="1535.5,-179.26 1532,-169.26 1528.5,-179.26 1535.5,-179.26"/>
</g>
<!-- seq7 -->
<g id="node26" class="node">
<title>seq7</title>
<polygon fill="#220022" stroke="transparent" points="1607.5,-52 1456.5,-52 1456.5,-16 1607.5,-16 1607.5,-52"/>
<text text-anchor="middle" x="1532" y="-31.2" font-family="Helvetica,sans-Serif" font-size="11.00" fill="#ff88ff">⑦ nvflash flashes EEPROM</text>
</g>
<!-- seq6&#45;&gt;seq7 -->
<g id="edge20" class="edge">
<title>seq6&#45;&gt;seq7</title>
<path fill="none" stroke="#ff9944" stroke-width="2" d="M1532,-112.89C1532,-112.89 1532,-62.19 1532,-62.19"/>
<polygon fill="#ff9944" stroke="#ff9944" stroke-width="2" points="1535.5,-62.19 1532,-52.19 1528.5,-62.19 1535.5,-62.19"/>
</g>
</g>
</svg>
