<?xml version="1.0" encoding="UTF-8" standalone="no"?>
<!DOCTYPE svg PUBLIC "-//W3C//DTD SVG 1.1//EN"
 "http://www.w3.org/Graphics/SVG/1.1/DTD/svg11.dtd">
<!-- Generated by graphviz version 2.43.0 (0)
 -->
<!-- Title: rom_selection Pages: 1 -->
<svg width="1230pt" height="1118pt"
 viewBox="0.00 0.00 1229.80 1118.03" xmlns="http://www.w3.org/2000/svg" xmlns:xlink="http://www.w3.org/1999/xlink">
<g id="graph0" class="graph" transform="scale(1 1) rotate(0) translate(50.4 1067.63)">
<title>rom_selection</title>
<polygon fill="#0d1117" stroke="transparent" points="-50.4,50.4 -50.4,-1067.63 1179.4,-1067.63 1179.4,50.4 -50.4,50.4"/>
<text text-anchor="middle" x="564.5" y="-1000.43" font-family="Helvetica,sans-Serif" font-size="16.00" fill="white">VBIOS ROM Selection Decision Tree</text>
<text text-anchor="middle" x="564.5" y="-982.43" font-family="Helvetica,sans-Serif" font-size="16.00" fill="white">ASUS TUF&#45;RTX3080 V6 Package — Correct Target Identification</text>
<!-- start -->
<g id="node1" class="node">
<title>start</title>
<ellipse fill="#003366" stroke="black" cx="367" cy="-942.11" rx="240.33" ry="31.23"/>
<text text-anchor="middle" x="367" y="-951.31" font-family="Helvetica,sans-Serif" font-size="11.00" fill="white">Identify your RTX 3080</text>
<text text-anchor="middle" x="367" y="-939.31" font-family="Helvetica,sans-Serif" font-size="11.00" fill="white">lspci &#45;vv &#45;s 0f:00.0 | grep &#45;i subsystem</text>
<text text-anchor="middle" x="367" y="-927.31" font-family="Helvetica,sans-Serif" font-size="11.00" fill="white">nvidia&#45;smi &#45;&#45;query&#45;gpu=vbios_version &#45;&#45;format=csv,noheader &#45;&#45;id=1</text>
</g>
<!-- subsystem_check -->
<g id="node2" class="node">
<title>subsystem_check</title>
<polygon fill="#1a1a3a" stroke="black" points="367,-860 290.43,-842 367,-824 443.58,-842 367,-860"/>
<text text-anchor="middle" x="367" y="-839.2" font-family="Helvetica,sans-Serif" font-size="11.00" fill="white">Subsystem ID?</text>
</g>
<!-- start&#45;&gt;subsystem_check -->
<g id="edge1" class="edge">
<title>start&#45;&gt;subsystem_check</title>
<path fill="none" stroke="black" d="M367,-910.99C367,-910.99 367,-870.27 367,-870.27"/>
<polygon fill="black" stroke="black" points="370.5,-870.27 367,-860.27 363.5,-870.27 370.5,-870.27"/>
</g>
<!-- subsystem_wrong -->
<g id="node3" class="node">
<title>subsystem_wrong</title>
<polygon fill="#330000" stroke="black" points="329.5,-763 132.5,-763 132.5,-670 329.5,-670 329.5,-763"/>
<text text-anchor="middle" x="231" y="-750.2" font-family="Helvetica,sans-Serif" font-size="11.00" fill="#ff6666">Subsystem ≠ 1043:87B0</text>
<text text-anchor="middle" x="231" y="-738.2" font-family="Helvetica,sans-Serif" font-size="11.00" fill="#ff6666">(Not a TUF&#45;RTX3080&#45;10G&#45;GAMING)</text>
<text text-anchor="middle" x="231" y="-713.2" font-family="Helvetica,sans-Serif" font-size="11.00" fill="#ff6666">Examples:</text>
<text text-anchor="middle" x="231" y="-701.2" font-family="Helvetica,sans-Serif" font-size="11.00" fill="#ff6666">• 1043:87EB = TURBO&#45;RTX3080</text>
<text text-anchor="middle" x="231" y="-689.2" font-family="Helvetica,sans-Serif" font-size="11.00" fill="#ff6666">• 3842:2480 = EVGA RTX 3080</text>
<text text-anchor="middle" x="231" y="-677.2" font-family="Helvetica,sans-Serif" font-size="11.00" fill="#ff6666">• 10DE:xxxx = Founders Edition</text>
</g>
<!-- subsystem_check&#45;&gt;subsystem_wrong -->
<g id="edge2" class="edge">
<title>subsystem_check&#45;&gt;subsystem_wrong</title>
<path fill="none" stroke="#ff4444" d="M309.98,-837.23C309.98,-837.23 309.98,-773.19 309.98,-773.19"/>
<polygon fill="#ff4444" stroke="#ff4444" points="313.48,-773.19 309.98,-763.19 306.48,-773.19 313.48,-773.19"/>
<text text-anchor="middle" x="335.5" y="-791" font-family="Helvetica,sans-Serif" font-size="10.00">≠ 1043:87B0</text>
</g>
<!-- subsystem_ok -->
<g id="node5" class="node">
<title>subsystem_ok</title>
<polygon fill="#003300" stroke="black" points="635,-734.5 403,-734.5 403,-698.5 635,-698.5 635,-734.5"/>
<text text-anchor="middle" x="519" y="-719.7" font-family="Helvetica,sans-Serif" font-size="11.00" fill="#88ff88">Subsystem = 1043:87B0</text>
<text text-anchor="middle" x="519" y="-707.7" font-family="Helvetica,sans-Serif" font-size="11.00" fill="#88ff88">✓ ASUSTeK TUF&#45;RTX3080&#45;O10G&#45;GAMING</text>
</g>
<!-- subsystem_check&#45;&gt;subsystem_ok -->
<g id="edge3" class="edge">
<title>subsystem_check&#45;&gt;subsystem_ok</title>
<path fill="none" stroke="#00cc66" d="M423.27,-836.92C423.27,-836.92 423.27,-744.76 423.27,-744.76"/>
<polygon fill="#00cc66" stroke="#00cc66" points="426.77,-744.76 423.27,-734.76 419.77,-744.76 426.77,-744.76"/>
<text text-anchor="middle" x="493" y="-791" font-family="Helvetica,sans-Serif" font-size="10.00">= 1043:87B0</text>
</g>
<!-- wrong_stop -->
<g id="node4" class="node">
<title>wrong_stop</title>
<polygon fill="#440000" stroke="black" points="366.78,-533.98 366.78,-562.02 282.56,-581.85 163.45,-581.85 79.22,-562.02 79.22,-533.98 163.45,-514.15 282.56,-514.15 366.78,-533.98"/>
<text text-anchor="middle" x="223" y="-557.2" font-family="Helvetica,sans-Serif" font-size="11.00" fill="#ff4444">STOP — Do NOT use these ROMs</text>
<text text-anchor="middle" x="223" y="-545.2" font-family="Helvetica,sans-Serif" font-size="11.00" fill="#ff4444">Find VBIOS for YOUR exact card</text>
<text text-anchor="middle" x="223" y="-533.2" font-family="Helvetica,sans-Serif" font-size="11.00" fill="#ff4444">at techpowerup.com/vgabios/</text>
</g>
<!-- subsystem_wrong&#45;&gt;wrong_stop -->
<g id="edge4" class="edge">
<title>subsystem_wrong&#45;&gt;wrong_stop</title>
<path fill="none" stroke="#ff4444" d="M231,-669.56C231,-669.56 231,-591.87 231,-591.87"/>
<polygon fill="#ff4444" stroke="#ff4444" points="234.5,-591.87 231,-581.87 227.5,-591.87 234.5,-591.87"/>
</g>
<!-- v6_package -->
<g id="node6" class="node">
<title>v6_package</title>
<polygon fill="#222233" stroke="black" points="689.5,-582.5 424.5,-582.5 424.5,-513.5 689.5,-513.5 689.5,-582.5"/>
<text text-anchor="middle" x="557" y="-569.7" font-family="Helvetica,sans-Serif" font-size="11.00" fill="#aaaacc">ASUS V6 Package (2023&#45;10&#45;18)</text>
<text text-anchor="middle" x="557" y="-557.7" font-family="Helvetica,sans-Serif" font-size="11.00" fill="#aaaacc">Extracted via: 7z x RTX3080_V6.exe &#45;ov6&#45;extracted</text>
<text text-anchor="middle" x="557" y="-532.7" font-family="Helvetica,sans-Serif" font-size="11.00" fill="#aaaacc">Contains 4 ROM candidates:</text>
<text text-anchor="middle" x="557" y="-520.7" font-family="Helvetica,sans-Serif" font-size="11.00" fill="#aaaacc">AS02, AS03, AS08, AS09</text>
</g>
<!-- subsystem_ok&#45;&gt;v6_package -->
<g id="edge5" class="edge">
<title>subsystem_ok&#45;&gt;v6_package</title>
<path fill="none" stroke="black" d="M529.75,-698.47C529.75,-698.47 529.75,-592.51 529.75,-592.51"/>
<polygon fill="black" stroke="black" points="533.25,-592.51 529.75,-582.51 526.25,-592.51 533.25,-592.51"/>
</g>
<!-- as08 -->
<g id="node7" class="node">
<title>as08</title>
<polygon fill="#440000" stroke="black" points="507.5,-362.5 340.5,-362.5 340.5,-318.5 507.5,-318.5 507.5,-362.5"/>
<text text-anchor="middle" x="424" y="-349.7" font-family="Helvetica,sans-Serif" font-size="11.00" fill="#ff6666">AS08: 10DE:2206 / 1043:87EB</text>
<text text-anchor="middle" x="424" y="-337.7" font-family="Helvetica,sans-Serif" font-size="11.00" fill="#ff6666">TURBO&#45;RTX3080</text>
<text text-anchor="middle" x="424" y="-325.7" font-family="Helvetica,sans-Serif" font-size="11.00" fill="#ff6666">(different PCB, different cooler)</text>
</g>
<!-- v6_package&#45;&gt;as08 -->
<g id="edge6" class="edge">
<title>v6_package&#45;&gt;as08</title>
<path fill="none" stroke="#ff4444" d="M479.83,-513.27C479.83,-513.27 479.83,-372.56 479.83,-372.56"/>
<polygon fill="#ff4444" stroke="#ff4444" points="483.33,-372.56 479.83,-362.56 476.33,-372.56 483.33,-372.56"/>
</g>
<!-- as09 -->
<g id="node8" class="node">
<title>as09</title>
<polygon fill="#440000" stroke="black" points="241.5,-362.5 74.5,-362.5 74.5,-318.5 241.5,-318.5 241.5,-362.5"/>
<text text-anchor="middle" x="158" y="-349.7" font-family="Helvetica,sans-Serif" font-size="11.00" fill="#ff6666">AS09: 10DE:2206 / 1043:87EB</text>
<text text-anchor="middle" x="158" y="-337.7" font-family="Helvetica,sans-Serif" font-size="11.00" fill="#ff6666">TURBO&#45;RTX3080</text>
<text text-anchor="middle" x="158" y="-325.7" font-family="Helvetica,sans-Serif" font-size="11.00" fill="#ff6666">(same wrong variant)</text>
</g>
<!-- v6_package&#45;&gt;as09 -->
<g id="edge7" class="edge">
<title>v6_package&#45;&gt;as09</title>
<path fill="none" stroke="#ff4444" d="M452.17,-513.24C452.17,-503.25 452.17,-495 452.17,-495 452.17,-495 160.31,-495 160.31,-495 160.31,-495 160.31,-372.64 160.31,-372.64"/>
<polygon fill="#ff4444" stroke="#ff4444" points="163.81,-372.64 160.31,-362.64 156.81,-372.64 163.81,-372.64"/>
</g>
<!-- as02 -->
<g id="node10" class="node">
<title>as02</title>
<polygon fill="#004400" stroke="black" stroke-width="3" points="764.5,-405 585.5,-405 585.5,-276 764.5,-276 764.5,-405"/>
<text text-anchor="middle" x="675" y="-392.2" font-family="Helvetica,sans-Serif" font-size="11.00" fill="#00ff88">AS02</text>
<text text-anchor="middle" x="675" y="-380.2" font-family="Helvetica,sans-Serif" font-size="11.00" fill="#00ff88">Version: 94.02.42.40.66</text>
<text text-anchor="middle" x="675" y="-368.2" font-family="Helvetica,sans-Serif" font-size="11.00" fill="#00ff88">Subsystem: 1043:87B0 ✓</text>
<text text-anchor="middle" x="675" y="-356.2" font-family="Helvetica,sans-Serif" font-size="11.00" fill="#00ff88">Board: TUF&#45;RTX3080</text>
<text text-anchor="middle" x="675" y="-344.2" font-family="Helvetica,sans-Serif" font-size="11.00" fill="#00ff88">Date: 2021&#45;03&#45;10</text>
<text text-anchor="middle" x="675" y="-332.2" font-family="Helvetica,sans-Serif" font-size="11.00" fill="#00ff88">Size: ~1 MB</text>
<text text-anchor="middle" x="675" y="-307.2" font-family="Helvetica,sans-Serif" font-size="11.00" fill="#00ff88">★ RECOMMENDED TARGET ★</text>
<text text-anchor="middle" x="675" y="-295.2" font-family="Helvetica,sans-Serif" font-size="11.00" fill="#00ff88">Newer build number (29236791)</text>
<text text-anchor="middle" x="675" y="-283.2" font-family="Helvetica,sans-Serif" font-size="11.00" fill="#00ff88">This is what we flashed</text>
</g>
<!-- v6_package&#45;&gt;as02 -->
<g id="edge8" class="edge">
<title>v6_package&#45;&gt;as02</title>
<path fill="none" stroke="#00cc66" stroke-width="2" d="M637.5,-513.27C637.5,-513.27 637.5,-415.15 637.5,-415.15"/>
<polygon fill="#00cc66" stroke="#00cc66" stroke-width="2" points="641,-415.15 637.5,-405.15 634,-415.15 641,-415.15"/>
</g>
<!-- as03 -->
<g id="node11" class="node">
<title>as03</title>
<polygon fill="#333300" stroke="black" points="1069,-405 839,-405 839,-276 1069,-276 1069,-405"/>
<text text-anchor="middle" x="954" y="-392.2" font-family="Helvetica,sans-Serif" font-size="11.00" fill="#ffff66">AS03</text>
<text text-anchor="middle" x="954" y="-380.2" font-family="Helvetica,sans-Serif" font-size="11.00" fill="#ffff66">Version: 94.02.42.40.65</text>
<text text-anchor="middle" x="954" y="-368.2" font-family="Helvetica,sans-Serif" font-size="11.00" fill="#ffff66">Subsystem: 1043:87B0 ✓</text>
<text text-anchor="middle" x="954" y="-356.2" font-family="Helvetica,sans-Serif" font-size="11.00" fill="#ffff66">Board: TUF&#45;RTX3080</text>
<text text-anchor="middle" x="954" y="-344.2" font-family="Helvetica,sans-Serif" font-size="11.00" fill="#ffff66">Date: similar era</text>
<text text-anchor="middle" x="954" y="-332.2" font-family="Helvetica,sans-Serif" font-size="11.00" fill="#ffff66">Size: ~1 MB</text>
<text text-anchor="middle" x="954" y="-307.2" font-family="Helvetica,sans-Serif" font-size="11.00" fill="#ffff66">Alternate / fallback only</text>
<text text-anchor="middle" x="954" y="-295.2" font-family="Helvetica,sans-Serif" font-size="11.00" fill="#ffff66">(older build number)</text>
<text text-anchor="middle" x="954" y="-283.2" font-family="Helvetica,sans-Serif" font-size="11.00" fill="#ffff66">← We started here (interactive flash mishap)</text>
</g>
<!-- v6_package&#45;&gt;as03 -->
<g id="edge9" class="edge">
<title>v6_package&#45;&gt;as03</title>
<path fill="none" stroke="#ffcc00" d="M689.8,-548C741.58,-548 788.75,-548 788.75,-548 788.75,-548 788.75,-362 788.75,-362 788.75,-362 828.78,-362 828.78,-362"/>
<polygon fill="#ffcc00" stroke="#ffcc00" points="828.78,-365.5 838.78,-362 828.78,-358.5 828.78,-365.5"/>
</g>
<!-- wrong_as -->
<g id="node9" class="node">
<title>wrong_as</title>
<polygon fill="#550000" stroke="black" points="274,-167.86 274,-188.14 193.75,-202.48 80.25,-202.48 -0,-188.14 -0,-167.86 80.25,-153.52 193.75,-153.52 274,-167.86"/>
<text text-anchor="middle" x="137" y="-181.2" font-family="Helvetica,sans-Serif" font-size="11.00" fill="#ff4444">WRONG CARD — Do NOT flash</text>
<text text-anchor="middle" x="137" y="-169.2" font-family="Helvetica,sans-Serif" font-size="11.00" fill="#ff4444">Subsystem EB ≠ B0</text>
</g>
<!-- as08&#45;&gt;wrong_as -->
<g id="edge10" class="edge">
<title>as08&#45;&gt;wrong_as</title>
<path fill="none" stroke="#ff4444" d="M340.39,-340C298.99,-340 257.75,-340 257.75,-340 257.75,-340 257.75,-201.26 257.75,-201.26"/>
<polygon fill="#ff4444" stroke="#ff4444" points="261.25,-201.26 257.75,-191.26 254.25,-201.26 261.25,-201.26"/>
</g>
<!-- as09&#45;&gt;wrong_as -->
<g id="edge11" class="edge">
<title>as09&#45;&gt;wrong_as</title>
<path fill="none" stroke="#ff4444" d="M158,-318.25C158,-318.25 158,-212.64 158,-212.64"/>
<polygon fill="#ff4444" stroke="#ff4444" points="161.5,-212.64 158,-202.64 154.5,-212.64 161.5,-212.64"/>
</g>
<!-- version_note -->
<g id="node12" class="node">
<title>version_note</title>
<polygon fill="#222200" stroke="black" points="1123,-224.5 813,-224.5 813,-131.5 1129,-131.5 1129,-218.5 1123,-224.5"/>
<polyline fill="none" stroke="black" points="1123,-224.5 1123,-218.5 "/>
<polyline fill="none" stroke="black" points="1129,-218.5 1123,-218.5 "/>
<text text-anchor="middle" x="971" y="-211.7" font-family="Helvetica,sans-Serif" font-size="11.00" fill="#ffee88">⚠ Version number confusion:</text>
<text text-anchor="middle" x="971" y="-199.7" font-family="Helvetica,sans-Serif" font-size="11.00" fill="#ffee88">.66 and .65 are VARIANT codes, NOT sequential builds.</text>
<text text-anchor="middle" x="971" y="-187.7" font-family="Helvetica,sans-Serif" font-size="11.00" fill="#ffee88">AS02 (.66) is the NEWER build despite higher variant number.</text>
<text text-anchor="middle" x="971" y="-175.7" font-family="Helvetica,sans-Serif" font-size="11.00" fill="#ffee88">AS03 (.65) is slightly older for the same 87B0 PCB.</text>
<text text-anchor="middle" x="971" y="-150.7" font-family="Helvetica,sans-Serif" font-size="11.00" fill="#ffee88">BIOS_Compare.ini confirms: no outbound upgrade</text>
<text text-anchor="middle" x="971" y="-138.7" font-family="Helvetica,sans-Serif" font-size="11.00" fill="#ffee88">chain from AS03 for 87B0 — AS02 is the terminus.</text>
</g>
<!-- as02&#45;&gt;version_note -->
<g id="edge13" class="edge">
<title>as02&#45;&gt;version_note</title>
<path fill="none" stroke="#008800" stroke-dasharray="5,2" d="M764.89,-319C797.85,-319 827.25,-319 827.25,-319 827.25,-319 827.25,-234.56 827.25,-234.56"/>
<polygon fill="#008800" stroke="#008800" points="830.75,-234.56 827.25,-224.56 823.75,-234.56 830.75,-234.56"/>
</g>
<!-- postflash -->
<g id="node14" class="node">
<title>postflash</title>
<polygon fill="#003300" stroke="black" points="648,-80 504,-80 504,0 648,0 648,-80"/>
<text text-anchor="middle" x="576" y="-67.2" font-family="Helvetica,sans-Serif" font-size="11.00" fill="#88ff88">Post&#45;flash state ✓</text>
<text text-anchor="middle" x="576" y="-55.2" font-family="Helvetica,sans-Serif" font-size="11.00" fill="#88ff88">nvflash &#45;&#45;version output:</text>
<text text-anchor="middle" x="576" y="-43.2" font-family="Helvetica,sans-Serif" font-size="11.00" fill="#88ff88">Version: 94.02.42.40.66</text>
<text text-anchor="middle" x="576" y="-31.2" font-family="Helvetica,sans-Serif" font-size="11.00" fill="#88ff88">Subsystem: 1043:87B0</text>
<text text-anchor="middle" x="576" y="-19.2" font-family="Helvetica,sans-Serif" font-size="11.00" fill="#88ff88">← AS02 (clean direct flash</text>
<text text-anchor="middle" x="576" y="-7.2" font-family="Helvetica,sans-Serif" font-size="11.00" fill="#88ff88"> &#160;&#160;with corrected flags)</text>
</g>
<!-- as02&#45;&gt;postflash -->
<g id="edge16" class="edge">
<title>as02&#45;&gt;postflash</title>
<path fill="none" stroke="#00cc66" stroke-width="2" d="M616.75,-275.67C616.75,-275.67 616.75,-90.3 616.75,-90.3"/>
<polygon fill="#00cc66" stroke="#00cc66" stroke-width="2" points="620.25,-90.3 616.75,-80.3 613.25,-90.3 620.25,-90.3"/>
<text text-anchor="middle" x="725.5" y="-181" font-family="Helvetica,sans-Serif" font-size="10.00">clean flash</text>
<text text-anchor="middle" x="725.5" y="-170" font-family="Helvetica,sans-Serif" font-size="10.00">(this session)</text>
</g>
<!-- correct_flags -->
<g id="node16" class="node">
<title>correct_flags</title>
<polygon fill="#002233" stroke="black" points="574,-225 332,-225 332,-131 580,-131 580,-219 574,-225"/>
<polyline fill="none" stroke="black" points="574,-225 574,-219 "/>
<polyline fill="none" stroke="black" points="580,-219 574,-219 "/>
<text text-anchor="middle" x="456" y="-212.2" font-family="Helvetica,sans-Serif" font-size="11.00" fill="#88ccff">Correct Linux nvflash 5.867 syntax:</text>
<text text-anchor="middle" x="456" y="-187.2" font-family="Helvetica,sans-Serif" font-size="11.00" fill="#88ccff">nvflash &#45;i 1 &lt;rom_file.rom&gt;</text>
<text text-anchor="middle" x="456" y="-162.2" font-family="Helvetica,sans-Serif" font-size="11.00" fill="#88ccff">NO force flags needed when subsystems match.</text>
<text text-anchor="middle" x="456" y="-150.2" font-family="Helvetica,sans-Serif" font-size="11.00" fill="#88ccff">Verified: strings nvflash | grep force</text>
<text text-anchor="middle" x="456" y="-138.2" font-family="Helvetica,sans-Serif" font-size="11.00" fill="#88ccff">→ no force flags exist in Linux binary</text>
</g>
<!-- as02&#45;&gt;correct_flags -->
<g id="edge17" class="edge">
<title>as02&#45;&gt;correct_flags</title>
<path fill="none" stroke="#008844" stroke-dasharray="5,2" d="M585.28,-297C562.21,-297 543.75,-297 543.75,-297 543.75,-297 543.75,-235.03 543.75,-235.03"/>
<polygon fill="#008844" stroke="#008844" points="547.25,-235.03 543.75,-225.03 540.25,-235.03 547.25,-235.03"/>
</g>
<!-- as03&#45;&gt;version_note -->
<g id="edge12" class="edge">
<title>as03&#45;&gt;version_note</title>
<path fill="none" stroke="#888800" stroke-dasharray="5,2" d="M954,-275.81C954,-275.81 954,-234.95 954,-234.95"/>
<polygon fill="#888800" stroke="#888800" points="957.5,-234.95 954,-224.95 950.5,-234.95 957.5,-234.95"/>
</g>
<!-- preflash -->
<g id="node13" class="node">
<title>preflash</title>
<polygon fill="#332200" stroke="black" points="1024.5,-756.5 883.5,-756.5 883.5,-676.5 1024.5,-676.5 1024.5,-756.5"/>
<text text-anchor="middle" x="954" y="-743.7" font-family="Helvetica,sans-Serif" font-size="11.00" fill="#ffcc88">Pre&#45;flash state</text>
<text text-anchor="middle" x="954" y="-731.7" font-family="Helvetica,sans-Serif" font-size="11.00" fill="#ffcc88">nvflash &#45;&#45;version output:</text>
<text text-anchor="middle" x="954" y="-719.7" font-family="Helvetica,sans-Serif" font-size="11.00" fill="#ffcc88">Version: 94.02.42.40.65</text>
<text text-anchor="middle" x="954" y="-707.7" font-family="Helvetica,sans-Serif" font-size="11.00" fill="#ffcc88">Subsystem: 1043:87B0</text>
<text text-anchor="middle" x="954" y="-695.7" font-family="Helvetica,sans-Serif" font-size="11.00" fill="#ffcc88">← AS03 (landed here via</text>
<text text-anchor="middle" x="954" y="-683.7" font-family="Helvetica,sans-Serif" font-size="11.00" fill="#ffcc88"> &#160;&#160;interactive flash mishap)</text>
</g>
<!-- mishap -->
<g id="node15" class="node">
<title>mishap</title>
<polygon fill="#330011" stroke="black" points="1086.5,-619 815.5,-619 815.5,-477 1092.5,-477 1092.5,-613 1086.5,-619"/>
<polyline fill="none" stroke="black" points="1086.5,-619 1086.5,-613 "/>
<polyline fill="none" stroke="black" points="1092.5,-613 1086.5,-613 "/>
<text text-anchor="middle" x="954" y="-606.2" font-family="Helvetica,sans-Serif" font-size="11.00" fill="#ff88aa">Interactive Flash Mishap</text>
<text text-anchor="middle" x="954" y="-594.2" font-family="Helvetica,sans-Serif" font-size="11.00" fill="#ff88aa">(earlier sessions)</text>
<text text-anchor="middle" x="954" y="-569.2" font-family="Helvetica,sans-Serif" font-size="11.00" fill="#ff88aa">Root cause: used Windows&#45;only flags:</text>
<text text-anchor="middle" x="954" y="-557.2" font-family="Helvetica,sans-Serif" font-size="11.00" fill="#ff88aa">&#45;&#45;force&#45;subsystem&#45;id &#45;&#45;force&#45;board&#45;id</text>
<text text-anchor="middle" x="954" y="-532.2" font-family="Helvetica,sans-Serif" font-size="11.00" fill="#ff88aa">nvflash 5.867 Linux: &#39;Command format not recognized&#39;</text>
<text text-anchor="middle" x="954" y="-520.2" font-family="Helvetica,sans-Serif" font-size="11.00" fill="#ff88aa">→ fell into interactive menu mode</text>
<text text-anchor="middle" x="954" y="-508.2" font-family="Helvetica,sans-Serif" font-size="11.00" fill="#ff88aa">→ expect script navigated menus</text>
<text text-anchor="middle" x="954" y="-496.2" font-family="Helvetica,sans-Serif" font-size="11.00" fill="#ff88aa">→ exit 5 from compatibility check</text>
<text text-anchor="middle" x="954" y="-484.2" font-family="Helvetica,sans-Serif" font-size="11.00" fill="#ff88aa">→ resulted in .65 (AS03) instead of .66 (AS02)</text>
</g>
<!-- preflash&#45;&gt;mishap -->
<g id="edge14" class="edge">
<title>preflash&#45;&gt;mishap</title>
<path fill="none" stroke="#996600" stroke-dasharray="5,2" d="M954,-676.14C954,-676.14 954,-629.32 954,-629.32"/>
<polygon fill="#996600" stroke="#996600" points="957.5,-629.32 954,-619.32 950.5,-629.32 957.5,-629.32"/>
</g>
<!-- mishap&#45;&gt;as03 -->
<g id="edge15" class="edge">
<title>mishap&#45;&gt;as03</title>
<path fill="none" stroke="#996600" stroke-dasharray="5,2" d="M954,-476.88C954,-476.88 954,-415.26 954,-415.26"/>
<polygon fill="#996600" stroke="#996600" points="957.5,-415.26 954,-405.26 950.5,-415.26 957.5,-415.26"/>
<text text-anchor="middle" x="979.5" y="-444" font-family="Helvetica,sans-Serif" font-size="10.00">landed here</text>
<text text-anchor="middle" x="979.5" y="-433" font-family="Helvetica,sans-Serif" font-size="10.00">by accident</text>
</g>
<!-- correct_flags&#45;&gt;postflash -->
<g id="edge18" class="edge">
<title>correct_flags&#45;&gt;postflash</title>
<path fill="none" stroke="#008844" stroke-dasharray="5,2" d="M542,-130.89C542,-130.89 542,-90.45 542,-90.45"/>
<polygon fill="#008844" stroke="#008844" points="545.5,-90.45 542,-80.45 538.5,-90.45 545.5,-90.45"/>
</g>
</g>
</svg>
