<?xml version="1.0" encoding="UTF-8" standalone="no"?>
<!DOCTYPE svg PUBLIC "-//W3C//DTD SVG 1.1//EN"
 "http://www.w3.org/Graphics/SVG/1.1/DTD/svg11.dtd">
<!-- Generated by graphviz version 2.43.0 (0)
 -->
<!-- Title: bar1_window_epochs Pages: 1 -->
<svg width="780pt" height="745pt"
 viewBox="0.00 0.00 779.90 745.15" xmlns="http://www.w3.org/2000/svg" xmlns:xlink="http://www.w3.org/1999/xlink">
<g id="graph0" class="graph" transform="scale(1 1) rotate(0) translate(43.2 701.95)">
<title>bar1_window_epochs</title>
<polygon fill="#0d1117" stroke="transparent" points="-43.2,43.2 -43.2,-701.95 736.7,-701.95 736.7,43.2 -43.2,43.2"/>
<text text-anchor="middle" x="346.75" y="-641.95" font-family="Helvetica,sans-Serif" font-size="16.00" fill="white">BAR1 Aperture Window Epochs</text>
<text text-anchor="middle" x="346.75" y="-623.95" font-family="Helvetica,sans-Serif" font-size="16.00" fill="white">256 MiB vs 8192 MiB — RTX 3080 (10 GB VRAM, 8778 MiB observed working set)</text>
<!-- hdr_b -->
<g id="node1" class="node">
<title>hdr_b</title>
<polygon fill="#441100" stroke="black" points="266.5,-614.75 65.5,-614.75 65.5,-578.75 266.5,-578.75 266.5,-614.75"/>
<text text-anchor="middle" x="166" y="-593.95" font-family="Helvetica,sans-Serif" font-size="11.00" fill="#ff6600">BEFORE REBAR &#160;| &#160;BAR1 = 256 MiB</text>
</g>
<!-- hdr_a -->
<g id="node2" class="node">
<title>hdr_a</title>
<polygon fill="#002211" stroke="black" points="639.5,-614.75 438.5,-614.75 438.5,-578.75 639.5,-578.75 639.5,-614.75"/>
<text text-anchor="middle" x="539" y="-593.95" font-family="Helvetica,sans-Serif" font-size="11.00" fill="#00cc66">AFTER REBAR &#160;&#160;| &#160;BAR1 = 8192 MiB</text>
</g>
<!-- hdr_b&#45;&gt;hdr_a -->
<!-- cpu_b -->
<g id="node3" class="node">
<title>cpu_b</title>
<ellipse fill="#1a3a5a" stroke="black" cx="166" cy="-497.13" rx="84.29" ry="22.76"/>
<text text-anchor="middle" x="166" y="-500.33" font-family="Helvetica,sans-Serif" font-size="11.00" fill="white">CPU</text>
<text text-anchor="middle" x="166" y="-488.33" font-family="Helvetica,sans-Serif" font-size="11.00" fill="white">AMD Ryzen 9 5950X</text>
</g>
<!-- hdr_b&#45;&gt;cpu_b -->
<!-- cpu_a -->
<g id="node7" class="node">
<title>cpu_a</title>
<ellipse fill="#1a3a5a" stroke="black" cx="539" cy="-497.13" rx="84.29" ry="22.76"/>
<text text-anchor="middle" x="539" y="-500.33" font-family="Helvetica,sans-Serif" font-size="11.00" fill="white">CPU</text>
<text text-anchor="middle" x="539" y="-488.33" font-family="Helvetica,sans-Serif" font-size="11.00" fill="white">AMD Ryzen 9 5950X</text>
</g>
<!-- hdr_a&#45;&gt;cpu_a -->
<!-- bar_b -->
<g id="node4" class="node">
<title>bar_b</title>
<polygon fill="#553300" stroke="black" points="231,-405.5 95,-405.5 95,-361.5 231,-361.5 231,-405.5"/>
<text text-anchor="middle" x="163" y="-392.7" font-family="Helvetica,sans-Serif" font-size="11.00" fill="#ffcc66">BAR1 Aperture</text>
<text text-anchor="middle" x="163" y="-380.7" font-family="Helvetica,sans-Serif" font-size="11.00" fill="#ffcc66">256 MiB</text>
<text text-anchor="middle" x="163" y="-368.7" font-family="Helvetica,sans-Serif" font-size="11.00" fill="#ffcc66">(active mapping window)</text>
</g>
<!-- cpu_b&#45;&gt;bar_b -->
<g id="edge3" class="edge">
<title>cpu_b&#45;&gt;bar_b</title>
<path fill="none" stroke="#ff6600" d="M165.41,-474.34C164.97,-457.71 164.35,-434.58 163.85,-415.94"/>
<polygon fill="#ff6600" stroke="#ff6600" points="167.34,-415.76 163.57,-405.85 160.34,-415.94 167.34,-415.76"/>
<text text-anchor="middle" x="191" y="-437.5" font-family="Helvetica,sans-Serif" font-size="10.00" fill="#ff6600">MMIO write</text>
</g>
<!-- cpu_b&#45;&gt;cpu_a -->
<!-- epochs_b -->
<g id="node5" class="node">
<title>epochs_b</title>
<polygon fill="#331100" stroke="black" points="296,-281.5 0,-281.5 0,-129.5 302,-129.5 302,-275.5 296,-281.5"/>
<polyline fill="none" stroke="black" points="296,-281.5 296,-275.5 "/>
<polyline fill="none" stroke="black" points="302,-275.5 296,-275.5 "/>
<text text-anchor="middle" x="151" y="-268.7" font-family="Helvetica,sans-Serif" font-size="11.00" fill="#ffaa66">Epoch &#160;1 / 35: &#160;&#160;&#160;0 MiB – &#160;256 MiB</text>
<text text-anchor="middle" x="151" y="-256.7" font-family="Helvetica,sans-Serif" font-size="11.00" fill="#ffaa66">Epoch &#160;2 / 35: &#160;256 MiB – &#160;512 MiB</text>
<text text-anchor="middle" x="151" y="-244.7" font-family="Helvetica,sans-Serif" font-size="11.00" fill="#ffaa66">Epoch &#160;3 / 35: &#160;512 MiB – &#160;768 MiB</text>
<text text-anchor="middle" x="151" y="-232.7" font-family="Helvetica,sans-Serif" font-size="11.00" fill="#ffaa66">...</text>
<text text-anchor="middle" x="151" y="-220.7" font-family="Helvetica,sans-Serif" font-size="11.00" fill="#ffaa66">Epoch 34 / 35: 8448 MiB – 8704 MiB</text>
<text text-anchor="middle" x="151" y="-208.7" font-family="Helvetica,sans-Serif" font-size="11.00" fill="#ffaa66">Epoch 35 / 35: 8704 MiB – 8778 MiB (tail)</text>
<text text-anchor="middle" x="151" y="-196.7" font-family="Helvetica,sans-Serif" font-size="11.00" fill="#ffaa66">──────────────────────────────────────</text>
<text text-anchor="middle" x="151" y="-184.7" font-family="Helvetica,sans-Serif" font-size="11.00" fill="#ffaa66">Each epoch:</text>
<text text-anchor="middle" x="151" y="-172.7" font-family="Helvetica,sans-Serif" font-size="11.00" fill="#ffaa66"> &#160;write BAR base addr &#160;(PCIe config write)</text>
<text text-anchor="middle" x="151" y="-160.7" font-family="Helvetica,sans-Serif" font-size="11.00" fill="#ffaa66"> &#160;wait for remap flush (~1–4 µs, serializing)</text>
<text text-anchor="middle" x="151" y="-148.7" font-family="Helvetica,sans-Serif" font-size="11.00" fill="#ffaa66"> &#160;transfer 256 MiB chunk</text>
<text text-anchor="middle" x="151" y="-136.7" font-family="Helvetica,sans-Serif" font-size="11.00" fill="#ffaa66"> &#160;repeat</text>
</g>
<!-- bar_b&#45;&gt;epochs_b -->
<g id="edge4" class="edge">
<title>bar_b&#45;&gt;epochs_b</title>
<path fill="none" stroke="#ff6600" d="M161.55,-361.27C160.36,-343.76 158.58,-317.68 156.82,-291.9"/>
<polygon fill="#ff6600" stroke="#ff6600" points="160.3,-291.41 156.13,-281.67 153.31,-291.89 160.3,-291.41"/>
<text text-anchor="middle" x="192.5" y="-324.5" font-family="Helvetica,sans-Serif" font-size="10.00" fill="#ff6600">slides ×35</text>
<text text-anchor="middle" x="192.5" y="-313.5" font-family="Helvetica,sans-Serif" font-size="10.00" fill="#ff6600">through VRAM</text>
</g>
<!-- vram_b -->
<g id="node6" class="node">
<title>vram_b</title>
<path fill="#442200" stroke="black" d="M228.5,-55.21C228.5,-58.27 193.76,-60.75 151,-60.75 108.24,-60.75 73.5,-58.27 73.5,-55.21 73.5,-55.21 73.5,-5.29 73.5,-5.29 73.5,-2.23 108.24,0.25 151,0.25 193.76,0.25 228.5,-2.23 228.5,-5.29 228.5,-5.29 228.5,-55.21 228.5,-55.21"/>
<path fill="none" stroke="black" d="M228.5,-55.21C228.5,-52.15 193.76,-49.66 151,-49.66 108.24,-49.66 73.5,-52.15 73.5,-55.21"/>
<text text-anchor="middle" x="151" y="-39.45" font-family="Helvetica,sans-Serif" font-size="11.00" fill="#ffcc88">VRAM: 10,240 MiB total</text>
<text text-anchor="middle" x="151" y="-27.45" font-family="Helvetica,sans-Serif" font-size="11.00" fill="#ffcc88">8778 MiB working set loaded</text>
<text text-anchor="middle" x="151" y="-15.45" font-family="Helvetica,sans-Serif" font-size="11.00" fill="#ffcc88">35 aperture epochs required</text>
</g>
<!-- epochs_b&#45;&gt;vram_b -->
<g id="edge5" class="edge">
<title>epochs_b&#45;&gt;vram_b</title>
<path fill="none" stroke="#ff6600" stroke-dasharray="5,2" d="M151,-129.27C151,-109.15 151,-88.2 151,-70.86"/>
<polygon fill="#ff6600" stroke="#ff6600" points="154.5,-70.57 151,-60.57 147.5,-70.57 154.5,-70.57"/>
<text text-anchor="middle" x="188.5" y="-92.5" font-family="Helvetica,sans-Serif" font-size="10.00" fill="#ff6600">populates VRAM</text>
</g>
<!-- bar_a -->
<g id="node8" class="node">
<title>bar_a</title>
<polygon fill="#224400" stroke="black" points="608,-405.5 472,-405.5 472,-361.5 608,-361.5 608,-405.5"/>
<text text-anchor="middle" x="540" y="-392.7" font-family="Helvetica,sans-Serif" font-size="11.00" fill="#88ff88">BAR1 Aperture</text>
<text text-anchor="middle" x="540" y="-380.7" font-family="Helvetica,sans-Serif" font-size="11.00" fill="#88ff88">8192 MiB</text>
<text text-anchor="middle" x="540" y="-368.7" font-family="Helvetica,sans-Serif" font-size="11.00" fill="#88ff88">(active mapping window)</text>
</g>
<!-- cpu_a&#45;&gt;bar_a -->
<g id="edge6" class="edge">
<title>cpu_a&#45;&gt;bar_a</title>
<path fill="none" stroke="#00cc66" d="M539.2,-474.34C539.34,-457.71 539.55,-434.58 539.72,-415.94"/>
<polygon fill="#00cc66" stroke="#00cc66" points="543.22,-415.88 539.81,-405.85 536.22,-415.82 543.22,-415.88"/>
<text text-anchor="middle" x="565" y="-437.5" font-family="Helvetica,sans-Serif" font-size="10.00" fill="#00cc66">MMIO write</text>
</g>
<!-- epochs_a -->
<g id="node9" class="node">
<title>epochs_a</title>
<polygon fill="#112200" stroke="black" points="687.5,-276.5 388.5,-276.5 388.5,-134.5 693.5,-134.5 693.5,-270.5 687.5,-276.5"/>
<polyline fill="none" stroke="black" points="687.5,-276.5 687.5,-270.5 "/>
<polyline fill="none" stroke="black" points="693.5,-270.5 687.5,-270.5 "/>
<text text-anchor="middle" x="541" y="-263.7" font-family="Helvetica,sans-Serif" font-size="11.00" fill="#88ff88">Epoch 1 / 2: &#160;&#160;&#160;0 MiB – 8192 MiB &#160;(32× 256 MiB in one pass)</text>
<text text-anchor="middle" x="541" y="-251.7" font-family="Helvetica,sans-Serif" font-size="11.00" fill="#88ff88">Epoch 2 / 2: 8192 MiB – 8778 MiB &#160;(586 MiB tail)</text>
<text text-anchor="middle" x="541" y="-239.7" font-family="Helvetica,sans-Serif" font-size="11.00" fill="#88ff88">──────────────────────────────────────</text>
<text text-anchor="middle" x="541" y="-227.7" font-family="Helvetica,sans-Serif" font-size="11.00" fill="#88ff88">Nearly all VRAM is CPU&#45;addressable</text>
<text text-anchor="middle" x="541" y="-215.7" font-family="Helvetica,sans-Serif" font-size="11.00" fill="#88ff88">without any remap.</text>
<text text-anchor="middle" x="541" y="-190.7" font-family="Helvetica,sans-Serif" font-size="11.00" fill="#88ff88">Transfer becomes PCIe&#45;bandwidth&#45;limited,</text>
<text text-anchor="middle" x="541" y="-178.7" font-family="Helvetica,sans-Serif" font-size="11.00" fill="#88ff88">not remap&#45;latency&#45;limited.</text>
<text text-anchor="middle" x="541" y="-153.7" font-family="Helvetica,sans-Serif" font-size="11.00" fill="#88ff88">17× fewer aperture remaps vs 256 MiB BAR1</text>
<text text-anchor="middle" x="541" y="-141.7" font-family="Helvetica,sans-Serif" font-size="11.00" fill="#88ff88">20× fewer for full 10 GiB card</text>
</g>
<!-- bar_a&#45;&gt;epochs_a -->
<g id="edge7" class="edge">
<title>bar_a&#45;&gt;epochs_a</title>
<path fill="none" stroke="#00cc66" d="M540.12,-361.27C540.23,-342.62 540.39,-314.27 540.54,-286.91"/>
<polygon fill="#00cc66" stroke="#00cc66" points="544.04,-286.91 540.6,-276.89 537.04,-286.87 544.04,-286.91"/>
<text text-anchor="middle" x="569" y="-324.5" font-family="Helvetica,sans-Serif" font-size="10.00" fill="#00cc66">covers ≈80%</text>
<text text-anchor="middle" x="569" y="-313.5" font-family="Helvetica,sans-Serif" font-size="10.00" fill="#00cc66">in one pass</text>
</g>
<!-- vram_a -->
<g id="node10" class="node">
<title>vram_a</title>
<path fill="#224400" stroke="black" d="M618.5,-55.21C618.5,-58.27 583.76,-60.75 541,-60.75 498.24,-60.75 463.5,-58.27 463.5,-55.21 463.5,-55.21 463.5,-5.29 463.5,-5.29 463.5,-2.23 498.24,0.25 541,0.25 583.76,0.25 618.5,-2.23 618.5,-5.29 618.5,-5.29 618.5,-55.21 618.5,-55.21"/>
<path fill="none" stroke="black" d="M618.5,-55.21C618.5,-52.15 583.76,-49.66 541,-49.66 498.24,-49.66 463.5,-52.15 463.5,-55.21"/>
<text text-anchor="middle" x="541" y="-39.45" font-family="Helvetica,sans-Serif" font-size="11.00" fill="#aaffaa">VRAM: 10,240 MiB total</text>
<text text-anchor="middle" x="541" y="-27.45" font-family="Helvetica,sans-Serif" font-size="11.00" fill="#aaffaa">8778 MiB working set loaded</text>
<text text-anchor="middle" x="541" y="-15.45" font-family="Helvetica,sans-Serif" font-size="11.00" fill="#aaffaa">2 aperture epochs required</text>
</g>
<!-- epochs_a&#45;&gt;vram_a -->
<g id="edge8" class="edge">
<title>epochs_a&#45;&gt;vram_a</title>
<path fill="none" stroke="#00cc66" stroke-dasharray="5,2" d="M541,-134.03C541,-112.47 541,-89.53 541,-70.81"/>
<polygon fill="#00cc66" stroke="#00cc66" points="544.5,-70.59 541,-60.59 537.5,-70.59 544.5,-70.59"/>
<text text-anchor="middle" x="578.5" y="-92.5" font-family="Helvetica,sans-Serif" font-size="10.00" fill="#00cc66">populates VRAM</text>
</g>
</g>
</svg>
