<?xml version="1.0" encoding="UTF-8" standalone="no"?>
<!DOCTYPE svg PUBLIC "-//W3C//DTD SVG 1.1//EN"
 "http://www.w3.org/Graphics/SVG/1.1/DTD/svg11.dtd">
<!-- Generated by graphviz version 2.43.0 (0)
 -->
<!-- Title: remap_cycle_flow Pages: 1 -->
<svg width="876pt" height="891pt"
 viewBox="0.00 0.00 875.94 890.57" xmlns="http://www.w3.org/2000/svg" xmlns:xlink="http://www.w3.org/1999/xlink">
<g id="graph0" class="graph" transform="scale(1 1) rotate(0) translate(43.2 847.37)">
<title>remap_cycle_flow</title>
<polygon fill="#0d1117" stroke="transparent" points="-43.2,43.2 -43.2,-847.37 832.74,-847.37 832.74,43.2 -43.2,43.2"/>
<text text-anchor="middle" x="394.77" y="-787.37" font-family="Helvetica,sans-Serif" font-size="16.00" fill="white">BAR1 Remap Cycle — Serialized Transfer Pattern</text>
<text text-anchor="middle" x="394.77" y="-769.37" font-family="Helvetica,sans-Serif" font-size="16.00" fill="white">256 MiB BAR1 (Before) vs 8192 MiB BAR1 (After)</text>
<!-- hdr_b -->
<g id="node1" class="node">
<title>hdr_b</title>
<polygon fill="#441100" stroke="black" points="381.04,-760.17 232.04,-760.17 232.04,-724.17 381.04,-724.17 381.04,-760.17"/>
<text text-anchor="middle" x="306.54" y="-739.37" font-family="Helvetica,sans-Serif" font-size="11.00" fill="#ff6600">BEFORE &#160;| &#160;256 MiB BAR1</text>
</g>
<!-- hdr_a -->
<g id="node2" class="node">
<title>hdr_a</title>
<polygon fill="#002211" stroke="black" points="714.04,-760.17 565.04,-760.17 565.04,-724.17 714.04,-724.17 714.04,-760.17"/>
<text text-anchor="middle" x="639.54" y="-739.37" font-family="Helvetica,sans-Serif" font-size="11.00" fill="#00cc66">AFTER &#160;&#160;| &#160;8192 MiB BAR1</text>
</g>
<!-- hdr_b&#45;&gt;hdr_a -->
<!-- start_b -->
<g id="node3" class="node">
<title>start_b</title>
<ellipse fill="#1a3a5a" stroke="black" cx="234.54" cy="-655.17" rx="123.05" ry="18"/>
<text text-anchor="middle" x="234.54" y="-652.37" font-family="Helvetica,sans-Serif" font-size="11.00" fill="white">Transfer 8778 MiB to RTX 3080 VRAM</text>
</g>
<!-- hdr_b&#45;&gt;start_b -->
<!-- start_a -->
<g id="node9" class="node">
<title>start_a</title>
<ellipse fill="#1a3a5a" stroke="black" cx="652.54" cy="-655.17" rx="123.05" ry="18"/>
<text text-anchor="middle" x="652.54" y="-652.37" font-family="Helvetica,sans-Serif" font-size="11.00" fill="white">Transfer 8778 MiB to RTX 3080 VRAM</text>
</g>
<!-- hdr_a&#45;&gt;start_a -->
<!-- remap_b -->
<g id="node4" class="node">
<title>remap_b</title>
<polygon fill="#442200" stroke="black" points="321.54,-576.17 147.54,-576.17 147.54,-532.17 321.54,-532.17 321.54,-576.17"/>
<text text-anchor="middle" x="234.54" y="-563.37" font-family="Helvetica,sans-Serif" font-size="11.00" fill="#ffaa66">① Write new BAR base address</text>
<text text-anchor="middle" x="234.54" y="-551.37" font-family="Helvetica,sans-Serif" font-size="11.00" fill="#ffaa66"> &#160;&#160;(PCIe configuration write)</text>
<text text-anchor="middle" x="234.54" y="-539.37" font-family="Helvetica,sans-Serif" font-size="11.00" fill="#ffaa66"> &#160;&#160;→ repositions 256 MiB window</text>
</g>
<!-- start_b&#45;&gt;remap_b -->
<g id="edge2" class="edge">
<title>start_b&#45;&gt;remap_b</title>
<path fill="none" stroke="#ff6600" d="M234.54,-636.92C234.54,-623.11 234.54,-603.35 234.54,-586.73"/>
<polygon fill="#ff6600" stroke="#ff6600" points="238.04,-586.34 234.54,-576.34 231.04,-586.34 238.04,-586.34"/>
<text text-anchor="middle" x="252.04" y="-604.17" font-family="Helvetica,sans-Serif" font-size="10.00" fill="#ff6600">epoch 1</text>
</g>
<!-- start_b&#45;&gt;start_a -->
<!-- flush_b -->
<g id="node5" class="node">
<title>flush_b</title>
<polygon fill="#660000" stroke="black" points="222.04,-471.17 9.04,-471.17 9.04,-379.17 222.04,-379.17 222.04,-471.17"/>
<text text-anchor="middle" x="115.54" y="-458.37" font-family="Helvetica,sans-Serif" font-size="11.00" fill="#ff4444">② Wait for remap flush</text>
<text text-anchor="middle" x="115.54" y="-446.37" font-family="Helvetica,sans-Serif" font-size="11.00" fill="#ff4444"> &#160;&#160;PCIe config cycle must COMPLETE</text>
<text text-anchor="middle" x="115.54" y="-434.37" font-family="Helvetica,sans-Serif" font-size="11.00" fill="#ff4444"> &#160;&#160;before new addresses are valid</text>
<text text-anchor="middle" x="115.54" y="-422.37" font-family="Helvetica,sans-Serif" font-size="11.00" fill="#ff4444"> &#160;&#160;~1–4 µs irreducible latency</text>
<text text-anchor="middle" x="115.54" y="-410.37" font-family="Helvetica,sans-Serif" font-size="11.00" fill="#ff4444"> &#160;&#160;─────────────────────────</text>
<text text-anchor="middle" x="115.54" y="-398.37" font-family="Helvetica,sans-Serif" font-size="11.00" fill="#ff4444"> &#160;&#160;SERIALIZING — cannot pipeline</text>
<text text-anchor="middle" x="115.54" y="-386.37" font-family="Helvetica,sans-Serif" font-size="11.00" fill="#ff4444"> &#160;&#160;with the data transfer</text>
</g>
<!-- remap_b&#45;&gt;flush_b -->
<g id="edge3" class="edge">
<title>remap_b&#45;&gt;flush_b</title>
<path fill="none" stroke="#ff6600" d="M214.62,-531.91C200.96,-517.32 182.19,-497.29 164.66,-478.59"/>
<polygon fill="#ff6600" stroke="#ff6600" points="167.15,-476.13 157.76,-471.22 162.04,-480.91 167.15,-476.13"/>
</g>
<!-- xfer_b -->
<g id="node6" class="node">
<title>xfer_b</title>
<polygon fill="#442200" stroke="black" points="220.54,-304.17 20.54,-304.17 20.54,-268.17 220.54,-268.17 220.54,-304.17"/>
<text text-anchor="middle" x="120.54" y="-289.37" font-family="Helvetica,sans-Serif" font-size="11.00" fill="#ffaa66">③ Transfer 256 MiB chunk</text>
<text text-anchor="middle" x="120.54" y="-277.37" font-family="Helvetica,sans-Serif" font-size="11.00" fill="#ffaa66"> &#160;&#160;(DMA or CPU writes through BAR1)</text>
</g>
<!-- flush_b&#45;&gt;xfer_b -->
<g id="edge4" class="edge">
<title>flush_b&#45;&gt;xfer_b</title>
<path fill="none" stroke="#ff6600" d="M117.19,-378.93C117.97,-357.56 118.88,-332.76 119.55,-314.33"/>
<polygon fill="#ff6600" stroke="#ff6600" points="123.05,-314.42 119.92,-304.3 116.05,-314.16 123.05,-314.42"/>
<text text-anchor="middle" x="155.04" y="-346.17" font-family="Helvetica,sans-Serif" font-size="10.00" fill="#ff6600">remap confirmed</text>
</g>
<!-- more_b -->
<g id="node7" class="node">
<title>more_b</title>
<polygon fill="#332200" stroke="black" points="143.54,-193.17 30.33,-175.17 143.54,-157.17 256.75,-175.17 143.54,-193.17"/>
<text text-anchor="middle" x="143.54" y="-172.37" font-family="Helvetica,sans-Serif" font-size="11.00" fill="#ffcc88">More VRAM remaining?</text>
</g>
<!-- xfer_b&#45;&gt;more_b -->
<g id="edge5" class="edge">
<title>xfer_b&#45;&gt;more_b</title>
<path fill="none" stroke="#ff6600" d="M124.14,-268.14C127.84,-250.6 133.66,-223.02 137.96,-202.63"/>
<polygon fill="#ff6600" stroke="#ff6600" points="141.41,-203.23 140.05,-192.72 134.56,-201.78 141.41,-203.23"/>
</g>
<!-- more_b&#45;&gt;remap_b -->
<g id="edge6" class="edge">
<title>more_b&#45;&gt;remap_b</title>
<path fill="none" stroke="#ff8800" d="M164.72,-189.93C199.17,-212.32 263.54,-254.17 263.54,-254.17 263.54,-254.17 264.54,-379.17 264.54,-379.17 264.54,-379.17 264.54,-471.17 264.54,-471.17 264.54,-471.17 251.54,-507.17 251.54,-507.17 251.54,-507.17 248.99,-514.07 245.87,-522.52"/>
<polygon fill="#ff8800" stroke="#ff8800" points="242.53,-521.46 242.35,-532.05 249.1,-523.88 242.53,-521.46"/>
<text text-anchor="middle" x="300.04" y="-346.17" font-family="Helvetica,sans-Serif" font-size="10.00" fill="#ff8800">YES &#160;(×35 total)</text>
</g>
<!-- done_b -->
<g id="node8" class="node">
<title>done_b</title>
<ellipse fill="#550000" stroke="black" cx="143.54" cy="-48.08" rx="143.59" ry="48.17"/>
<text text-anchor="middle" x="143.54" y="-69.28" font-family="Helvetica,sans-Serif" font-size="11.00" fill="#ff8844">DONE &#160;(35 remap cycles)</text>
<text text-anchor="middle" x="143.54" y="-57.28" font-family="Helvetica,sans-Serif" font-size="11.00" fill="#ff8844">────────────────────────</text>
<text text-anchor="middle" x="143.54" y="-45.28" font-family="Helvetica,sans-Serif" font-size="11.00" fill="#ff8844">Min. remap latency: 35 × 4 µs = 140 µs</text>
<text text-anchor="middle" x="143.54" y="-33.28" font-family="Helvetica,sans-Serif" font-size="11.00" fill="#ff8844">(before TLB + lock + fence costs)</text>
<text text-anchor="middle" x="143.54" y="-21.28" font-family="Helvetica,sans-Serif" font-size="11.00" fill="#ff8844">Transfer is remap&#45;latency&#45;limited</text>
</g>
<!-- more_b&#45;&gt;done_b -->
<g id="edge7" class="edge">
<title>more_b&#45;&gt;done_b</title>
<path fill="none" stroke="#ff6600" d="M143.54,-157.04C143.54,-143.88 143.54,-124.91 143.54,-106.54"/>
<polygon fill="#ff6600" stroke="#ff6600" points="147.04,-106.43 143.54,-96.43 140.04,-106.43 147.04,-106.43"/>
<text text-anchor="middle" x="151.54" y="-124.17" font-family="Helvetica,sans-Serif" font-size="10.00" fill="#ff6600">NO</text>
</g>
<!-- map_a -->
<g id="node10" class="node">
<title>map_a</title>
<polygon fill="#224400" stroke="black" points="744.04,-576.17 561.04,-576.17 561.04,-532.17 744.04,-532.17 744.04,-576.17"/>
<text text-anchor="middle" x="652.54" y="-563.37" font-family="Helvetica,sans-Serif" font-size="11.00" fill="#88ff88">① Map VRAM at allocation time</text>
<text text-anchor="middle" x="652.54" y="-551.37" font-family="Helvetica,sans-Serif" font-size="11.00" fill="#88ff88"> &#160;&#160;Single mapping covers 8192 MiB</text>
<text text-anchor="middle" x="652.54" y="-539.37" font-family="Helvetica,sans-Serif" font-size="11.00" fill="#88ff88"> &#160;&#160;(≈ 80% of card in one shot)</text>
</g>
<!-- start_a&#45;&gt;map_a -->
<g id="edge9" class="edge">
<title>start_a&#45;&gt;map_a</title>
<path fill="none" stroke="#00cc66" d="M652.54,-636.92C652.54,-623.11 652.54,-603.35 652.54,-586.73"/>
<polygon fill="#00cc66" stroke="#00cc66" points="656.04,-586.34 652.54,-576.34 649.04,-586.34 656.04,-586.34"/>
</g>
<!-- xfer_a -->
<g id="node11" class="node">
<title>xfer_a</title>
<polygon fill="#224400" stroke="black" points="745.04,-447.17 560.04,-447.17 560.04,-403.17 745.04,-403.17 745.04,-447.17"/>
<text text-anchor="middle" x="652.54" y="-434.37" font-family="Helvetica,sans-Serif" font-size="11.00" fill="#aaffaa">② Transfer data</text>
<text text-anchor="middle" x="652.54" y="-422.37" font-family="Helvetica,sans-Serif" font-size="11.00" fill="#aaffaa"> &#160;&#160;No remap needed for main body</text>
<text text-anchor="middle" x="652.54" y="-410.37" font-family="Helvetica,sans-Serif" font-size="11.00" fill="#aaffaa"> &#160;&#160;PCIe DMA runs at link bandwidth</text>
</g>
<!-- map_a&#45;&gt;xfer_a -->
<g id="edge10" class="edge">
<title>map_a&#45;&gt;xfer_a</title>
<path fill="none" stroke="#00cc66" d="M652.54,-531.91C652.54,-511.58 652.54,-480.68 652.54,-457.52"/>
<polygon fill="#00cc66" stroke="#00cc66" points="656.04,-457.49 652.54,-447.49 649.04,-457.49 656.04,-457.49"/>
<text text-anchor="middle" x="687.04" y="-499.17" font-family="Helvetica,sans-Serif" font-size="10.00" fill="#00cc66">maps 8192 MiB</text>
</g>
<!-- tail_a -->
<g id="node12" class="node">
<title>tail_a</title>
<polygon fill="#112200" stroke="black" points="652.54,-318.17 515.54,-286.17 652.54,-254.17 789.54,-286.17 652.54,-318.17"/>
<text text-anchor="middle" x="652.54" y="-289.37" font-family="Helvetica,sans-Serif" font-size="11.00" fill="#88ffaa">Tail remaining?</text>
<text text-anchor="middle" x="652.54" y="-277.37" font-family="Helvetica,sans-Serif" font-size="11.00" fill="#88ffaa">(8778 – 8192 = 586 MiB)</text>
</g>
<!-- xfer_a&#45;&gt;tail_a -->
<g id="edge11" class="edge">
<title>xfer_a&#45;&gt;tail_a</title>
<path fill="none" stroke="#00cc66" d="M652.54,-403.06C652.54,-383.23 652.54,-352.99 652.54,-328.38"/>
<polygon fill="#00cc66" stroke="#00cc66" points="656.04,-328.22 652.54,-318.22 649.04,-328.22 656.04,-328.22"/>
</g>
<!-- xfer_t -->
<g id="node13" class="node">
<title>xfer_t</title>
<polygon fill="#1a3300" stroke="black" points="564.04,-193.17 393.04,-193.17 393.04,-157.17 564.04,-157.17 564.04,-193.17"/>
<text text-anchor="middle" x="478.54" y="-178.37" font-family="Helvetica,sans-Serif" font-size="11.00" fill="#88ffaa">③ Map + transfer 586 MiB tail</text>
<text text-anchor="middle" x="478.54" y="-166.37" font-family="Helvetica,sans-Serif" font-size="11.00" fill="#88ffaa"> &#160;&#160;One additional mapping epoch</text>
</g>
<!-- tail_a&#45;&gt;xfer_t -->
<g id="edge12" class="edge">
<title>tail_a&#45;&gt;xfer_t</title>
<path fill="none" stroke="#00cc66" d="M616.49,-262.58C586.63,-243.88 544.41,-217.43 514.56,-198.73"/>
<polygon fill="#00cc66" stroke="#00cc66" points="516.05,-195.53 505.72,-193.19 512.34,-201.47 516.05,-195.53"/>
<text text-anchor="middle" x="571.04" y="-221.17" font-family="Helvetica,sans-Serif" font-size="10.00" fill="#00cc66">YES</text>
</g>
<!-- done_a -->
<g id="node14" class="node">
<title>done_a</title>
<ellipse fill="#003300" stroke="black" cx="648.54" cy="-48.08" rx="139.1" ry="48.17"/>
<text text-anchor="middle" x="648.54" y="-69.28" font-family="Helvetica,sans-Serif" font-size="11.00" fill="#66ff88">DONE &#160;(2 mapping epochs)</text>
<text text-anchor="middle" x="648.54" y="-57.28" font-family="Helvetica,sans-Serif" font-size="11.00" fill="#66ff88">────────────────────────</text>
<text text-anchor="middle" x="648.54" y="-45.28" font-family="Helvetica,sans-Serif" font-size="11.00" fill="#66ff88">Min. remap latency: 2 × 4 µs = 8 µs</text>
<text text-anchor="middle" x="648.54" y="-33.28" font-family="Helvetica,sans-Serif" font-size="11.00" fill="#66ff88">Transfer is PCIe&#45;bandwidth&#45;limited</text>
<text text-anchor="middle" x="648.54" y="-21.28" font-family="Helvetica,sans-Serif" font-size="11.00" fill="#66ff88">not remap&#45;latency&#45;limited</text>
</g>
<!-- tail_a&#45;&gt;done_a -->
<g id="edge13" class="edge">
<title>tail_a&#45;&gt;done_a</title>
<path fill="none" stroke="#00cc66" stroke-dasharray="5,2" d="M652.01,-253.82C651.38,-216.38 650.3,-153.03 649.52,-106.69"/>
<polygon fill="#00cc66" stroke="#00cc66" points="653.01,-106.43 649.35,-96.49 646.02,-106.55 653.01,-106.43"/>
<text text-anchor="middle" x="658.54" y="-172.67" font-family="Helvetica,sans-Serif" font-size="10.00" fill="#00cc66">NO</text>
</g>
<!-- xfer_t&#45;&gt;done_a -->
<g id="edge14" class="edge">
<title>xfer_t&#45;&gt;done_a</title>
<path fill="none" stroke="#00cc66" d="M501.82,-157.04C522.52,-141.81 553.79,-118.8 582.16,-97.93"/>
<polygon fill="#00cc66" stroke="#00cc66" points="584.48,-100.56 590.46,-91.82 580.33,-94.92 584.48,-100.56"/>
</g>
</g>
</svg>
